/* XPM */
static char *_a91d4504d924a70f760bb10f54fc9d83ncD80rEriDLo9Lu[] = {
/* columns rows colors chars-per-pixel */
"50 50 235 2 ",
"   c #E9376E",
".  c #E93971",
"X  c #EC3B73",
"o  c #F13E77",
"O  c #E54775",
"+  c #EC4275",
"@  c #F3437B",
"#  c #F64B7F",
"$  c #E8547D",
"%  c #F6587E",
"&  c #EF6E7E",
"*  c #F36B74",
"=  c #F3647D",
"-  c #F26C7E",
";  c #ED7378",
":  c #EE7D7C",
">  c #F2747E",
",  c #F17C7E",
"<  c #DF9F65",
"1  c #CA8A7A",
"2  c #E69B6B",
"3  c #EA9B6A",
"4  c #EB8879",
"5  c #EC8B7B",
"6  c #F2837B",
"7  c #E69976",
"8  c #EA9379",
"9  c #DBA36A",
"0  c #DEA877",
"q  c #DEB179",
"w  c #E4A764",
"e  c #E3A36B",
"r  c #E3AA6D",
"t  c #E6A573",
"y  c #E4AB74",
"u  c #E7A878",
"i  c #E6B179",
"p  c #D85E8A",
"a  c #EF4E80",
"s  c #F54D83",
"d  c #F94D83",
"f  c #F94884",
"g  c #EB5984",
"h  c #F55384",
"j  c #F95484",
"k  c #F55A83",
"l  c #F4548A",
"z  c #FA5689",
"x  c #F55B8A",
"c  c #FB5B8D",
"v  c #ED5C92",
"b  c #F95C93",
"n  c #FC5E92",
"m  c #D77985",
"M  c #DA6E9A",
"N  c #CE7B9A",
"B  c #D2779D",
"V  c #EA6284",
"C  c #E86A87",
"Z  c #F46382",
"A  c #FA638E",
"S  c #F56989",
"D  c #EB758A",
"F  c #F27484",
"G  c #EA6596",
"H  c #F66493",
"J  c #FC6393",
"K  c #F36C93",
"L  c #FB6A96",
"P  c #FA659B",
"I  c #F56B9A",
"U  c #FC6C9A",
"Y  c #ED7493",
"T  c #EC779A",
"R  c #F7759C",
"E  c #FC739D",
"W  c #F7789A",
"Q  c #FB7A9E",
"!  c #D37CA7",
"~  c #F769A1",
"^  c #EA7AA6",
"/  c #FC76A2",
"(  c #F57CA3",
")  c #F578A6",
"_  c #FB7AA3",
"`  c #5C86C6",
"'  c #5D89C7",
"]  c #5B86C8",
"[  c #5E8BC9",
"{  c #638FC6",
"}  c #618CCA",
"|  c #6592CD",
" . c #6A96CD",
".. c #6C98CD",
"X. c #729BCE",
"o. c #6796D0",
"O. c #6996D2",
"+. c #6A9AD3",
"@. c #6B9CD5",
"#. c #729ED2",
"$. c #709FD8",
"%. c #6FA1D8",
"&. c #73A2D5",
"*. c #79A5D5",
"=. c #7CAAD6",
"-. c #73A5DB",
";. c #76AADE",
":. c #7BADDD",
">. c #7EB0DE",
",. c #77ABE0",
"<. c #79ADE1",
"1. c #7DB3E5",
"2. c #7FB6E8",
"3. c #BC9B89",
"4. c #BDA489",
"5. c #BA95B9",
"6. c #CB8782",
"7. c #D6878B",
"8. c #C6998A",
"9. c #DC8F9B",
"0. c #CC9A90",
"q. c #D69494",
"w. c #ED8C83",
"e. c #E28789",
"r. c #E99785",
"t. c #F3908D",
"y. c #EA879B",
"u. c #F88797",
"i. c #F79A97",
"p. c #DEB580",
"a. c #E9A984",
"s. c #E6B586",
"d. c #EAB98D",
"f. c #EAAB97",
"g. c #FAA69C",
"h. c #E9BC97",
"j. c #F9B797",
"k. c #CB88AC",
"l. c #D18AAD",
"z. c #C88CB1",
"x. c #D789B2",
"c. c #E988A9",
"v. c #F585A5",
"b. c #FB82A5",
"n. c #F487AA",
"m. c #FA84AB",
"M. c #FA8CAD",
"N. c #EA97A9",
"B. c #F797A7",
"V. c #F388B3",
"C. c #ED9EB3",
"Z. c #F595B3",
"A. c #F79BB7",
"S. c #E9A7B8",
"D. c #F4A6BC",
"F. c #F4B7B2",
"G. c #EFC497",
"H. c #EBC39E",
"J. c #EBC6A7",
"K. c #ECCCB2",
"L. c #F3CBB6",
"P. c #EDD2B7",
"I. c #819BCD",
"U. c #AF9CC0",
"Y. c #BA9EC1",
"T. c #84ABD7",
"R. c #83B3DC",
"E. c #88B8DE",
"W. c #9BBBDF",
"Q. c #A3BCDB",
"!. c #B1BDD6",
"~. c #81B6E6",
"^. c #84B9E6",
"/. c #8BBBE2",
"(. c #80B6E8",
"). c #86BCE9",
"_. c #8CBFE9",
"`. c #92BDE2",
"'. c #FAA7C1",
"]. c #FAABC4",
"[. c #ECB5C5",
"{. c #EDBECA",
"}. c #FAB6CB",
"|. c #8EC1E5",
" X c #8CC2E9",
".X c #92C3E4",
"XX c #95C9E7",
"oX c #9ACAE7",
"OX c #93C5E9",
"+X c #95CBEC",
"@X c #9ACCEB",
"#X c #9DD2ED",
"$X c #9DD3F0",
"%X c #A7CAE9",
"&X c #B2CEE8",
"*X c #A1D4EE",
"=X c #ABD3ED",
"-X c #A4D8EF",
";X c #B5D6EE",
":X c #A2D6F0",
">X c #AFD7F1",
",X c #A5DBF3",
"<X c #AADDF4",
"1X c #B4DDF3",
"2X c #BBDDF1",
"3X c #A7E0F4",
"4X c #AAE0F5",
"5X c #B3E1F4",
"6X c #BCE3F5",
"7X c #C4C7DD",
"8X c #EEDAC3",
"9X c #F3D8C7",
"0X c #EFC9D3",
"qX c #F6C6D5",
"wX c #F2D1DA",
"eX c #EBE0CF",
"rX c #F3E0CE",
"tX c #F4E4D4",
"yX c #F6E6DB",
"uX c #F7E8DA",
"iX c #F5EADC",
"pX c #CBDAEE",
"aX c #C8DCF1",
"sX c #F4DAE1",
"dX c #D2E1EA",
"fX c #C2E4F6",
"gX c #CBE5F5",
"hX c #CCE7F7",
"jX c #D6E7F7",
"kX c #E9E9E8",
"lX c #F4E9E7",
"zX c #F9EDE3",
"xX c #F8F2E6",
"cX c #E4ECF7",
"vX c #E1EAF8",
/* pixels */
"` ` ] <.| ` ` ` ` *.OX[ ;.2.1.1.1.1.1.1.<.1.1.+.<X|.` ` ` O.;.[ ` ` ` } oX#.| 2.2.1.1.1.1.1.1.1.2.;.",
"` ` -.(.[ ` ` ` ` } OX`.{ <.~.(.(.2.1.1.1.%.[ ` &..X` ` [ 2.;.[ ` ` ` ` ;.#XX.o.2.(.(.2.1.1.1.2.} ' ",
"` } ;.2.1.| [ ` ` | OXjXQ. .2.~.1. .` ` o.%XzXiXuXzXxX` o.2.(.%.| ] ] ] -.>XjX@.-.(.(.;.` ` ` ;.<.} ",
"+.;.2.;.;.2.;.+.+.&.=XgX=XOX X1.O.yXK.s.r e 3 3 3 2 e e s.H.8X%X(.+.+.+.~.gXaX@XOX).;.` ` ` ` ' ,.;.",
"(.(.;.[ [ &.-.-.1.+X,X X(.+XkXP.u 7 7 r.S j h d h h h k F 6 3 t H.iX;. X:X#X~.).@X+X/.=.` ` ` ` } ~.",
"(.;.} ` ` ] ] ] :.:X=.;.%XK.e 8 & h d j z m D H n n c ! x h C 1 5 3 h.zXOX&.2.2.(.R.:X,XR.' ' ' .X>X",
"<.| ` ` ` ] ` E.$X).` rXy 8 Z d j c J J J 7.A J J J J k.^ J x 8.V x 4 t K.] 2.2.;.[ *.<X1X&X@XoX4XfX",
";.` ` ` ` ` R.,XOX| K.2 F h l n J J J L U E E ( m.E / c.x.J J K 7.x d w.t s.xX(.-.` ] *.6XvX6X X). X",
"<X<X<X,X,X,X<XhXOXh.7 = M G J J J U / x.Q _ _ _ S._ Q c.c._ m.( H J J u.% 5 y uX2.+.` ` T.<XOX2.[ [ ",
"6XvXcX6XjX<XfXjXd.8 % j G z.H R _ _ _ Y._ _ _ _ n._ _ ( _ _ ( A.].M.P A c h 4 y uX(.+.| E.+X1.} ` ` ",
"#XfXvX6XoXoXoXh.7 y.l J J U / _ _ _ ( Y.W E U U U I E / _ _ _ / _ '.}.Q J c l 6 0 xX2.%X,X X+.` ` ` ",
"#.:XfX:X' ` P.7 % T v.J U _ _ _ _ _ ) 5.K W J J J D J J J U M.Z._ / M.qXM.J H Y 5 s./.hX>X2.+.` ` ` ",
";.+X#X).-.yXe F l H J U _ _ u._ E J I T J g.A x b 3.K J J J Z.S.Z./ _ m.qXM.H Z.k 7 J.`.%X2.+.` ` ` ",
"$X@X).(.(.a.5 h b A U Q _ ( g.i.J J n z d i.j s s C V h z J J J J E _ _ _ qXm.H x = e iX-.2.+.` ` ` ",
":X).~.(.P.3 j c K 7./ / c.Q U j.c j d s d F j d h d d d d d z J J J ^ c._ B.9XU J j w.d.O.(.1.} ` ` ",
"@X[ [ kXy w.k P K 4._ V.z.P A j.k s c x s f @ o X o @ # d d d j J P 5.) ( g.F.].J c k.0 tX~.~.1.1.-.",
"pX} ] 9Xy w.c J Y 4.Q ^ ^ J z x s d K c.+ C S.{.{.S.y.+ + a d s j H I J / j.B.'.( H z.r.H.1.1.1.(.OX",
"4XOX| d.8 j J J ( y._ E J c d d d # X D wX@.).gX:X2X6XlXC.. @ d d l J J U j.b._ A.J z.= 9 !.` ` <.=X",
"@X4XkXw - z J U _ _ / L n h j s s . N.` ` ` oXXX~./..X,X,X0XO @ S j n J J Q _ ( M.L H h 7 8X` ] +.*X",
"..@XrX2 h c J E _ _ E J z j t.k X y.` ` ` *.*XO.;.-.` R.<X:X0X. S i.j J J U _ _ _ L J z 5 J.` ` `.XX",
"` #.K.7 d J J _ _ b.R J d s % s O lX` ] #.*X.X} | <.o.` R.,X+Xc.+ Z k c J J v._ _ L J c > i ` /.-X*.",
"` ` h.8 V J L _ _ D.E c d s s X S.#XoXoX;X%X| ` | (.@.` | :X~.lX. d g x J J _ b._ U J n = e dXgX*.` ",
"` ` p., m J U _ _ _ J c d d s   sX/.,X5XhX<X:X .1.(.@.` | <X+X2.C $ 6.V n J E _ / T J J k 9 zX6X*X/.",
"{ E.r F l J U _ _ / J z s # V O [ ;.~.^.).+X<X<X^.^.&.{ :X6XhX+XN.o a h u.L E / Q 3.S J d 2 uX).<X<X",
"4X4Xw : z H U _ _ ( x.j m 6.1 g ` ` ' <.<.:.<.,X<X,X4X<X5XdXdX6XC.@ d d t.j.K _ _ q.e.J C 9 tX<.<.|.",
",X#Xw , z J ^ c._ _ z.j s s # $ } } } } } } } -X1X#X4X#X#X+.+.|.N.@ d h n u.E _ _ q.7.J % 9 tX[ [ =.",
"R. .y : z I z.( _ ( z.z f s d . I.` ` ` ` ` ` -XgX<X#X..-.~.(.~.Y @ d d J J E E _ y.Y H j < iX` ` =.",
"` ` d.5 j J I Q ( _ ~ c d s d X 0X` ` ` ` o.-.OX4X#X#.` ' -.~.lXX s d h J J E _ Q U J n k < lX` $.>.",
"` ` J.8 s H J ( _ b.L J j s d @ T -.;.;.;.<.2.&.4X.X` ` ` | ;.C.p v s z J J / Q g.~ A n - e -.-.~.:.",
"` ` 8Xu h J J / _ v.9.A l h h s X {.~.~.~.-. .[ R..X` ` [ <.sXO M l.d c J L _ _ j.J J h 6 d.~.2. .} ",
"` ` zXe F c.n.U _ _ N.D b f N v s X 0X} @.1. .` &..X` ` } sX$ o v 5.h J b E _ / j.L J v 7 P.[ <.,.` ",
"} %.(.r f.N.b.L / _ M.n.J z l G f @ $ S.7X$.1.} *.@X$.} [.O o s h G z E S.D._ _ i.J b B w zX` ' 1.-.",
"2.2.1.K.t j n J E _ _ '.U H k d d d T + $ S.0XsXsX0XS.g   @ d d d z J J _ ( _ E J J c e.d.` ` ` } :.",
"~.1. .lXr 6 z J U ^ _ M.'.i.S l d d z s @ + .   X p X @ s d d d j J J E ( / _ U J n j 3 eX] ` ' R.*X",
"1.o.` ` J.u % c I 5._ _ D.F.J c j s s f d s d # l B d d d h s h n J U _ ( _ E J J z : s.=XW.E.E.<XfX",
";.] ` ] zXr 5 z J U.E _ _ ].D.J n z h h d l h s f l d d d C.H b J U _ Q _ / J J b % 7 tXfXjX6X+XOX@X",
"#XoXoXoXoXP.r - S 5.J / _ _ '.].U J J z ! ! s s h d h j c n.v.J E _ y.0._ L L v.j 8 J.} `.6X*X^.O.o.",
"6XjXjX5XjX3Xd.u Z b J J E _ _ A.wXM.L J T J J n c n J J J U E _ _ _ _ 8.Y J J H 6 s.T.] =.@X^.+.] ] ",
"<XgXcX6X<X,XxXq 7 k c J J E _ b.[.{.A.m.E U J J J J U U E _ _ Q b._ / Y Y J z > y lX2./.<X+X+.` ` ` ",
"&.,XgX1X} ] ` uXy 8 k c J J U R _ m._ m.b.y.9.Q E K S U Q _ u.g.i.E J J H z > i yX` ~.jX=X2.+.` ` ` ",
"@.+X:X).+.o.O.;.tXu 7 % c J H J U E _ _ ( 0.) ) - L.9Xr.H - L ( L J J b j a.u tXT.*..X%X;X2.+.` ` ` ",
"+X+X X(.2.~.~.(.~.iXs.u ; C 7.J J J U E E / * 6 f.| ^.xX9XiXf.k J J x % 5 G.uXhXhXoX .[ ;.2.+.` ` ` ",
":X X2.(.~.~.~.(.(.' 7Xh.y 7 6.z c J J J J = 8X` } ~.:X#X~.(.iX= c k , t J.I./.hX=X..` ] O.2.;.} ` ` ",
"#X+.+.+.+.+.;.(.(.-.` ` 9Xq 0 w.Z j c n c ; ;.} 1.1X6X=.+.O.zX6 : t s.9X| ` | #X#.` ` } <.2.2.,.;.@.",
"aX` ` ` ` ` } ;.(.2.,./.,XQ.P.i t 8 , = h * yX@X:XfXvXT.` ` ` xXJ.8X(.(.1.;.#XoX` ` ` <.2.2.2.2.2. X",
"<X/.' ` ` ` ` [ [ ~.^.@X4XX.[ O.rXH.i e 3 J.~.gX<XfXgX<X| ` ` ` ` ` } #.2.~.<XoX[ [ ;.2.;.[ [ [ 2.%X",
"-X4XE.} [ ...... ._.<XgXvX5X,X~.1.o.` iX9X] oX:X~.OX*X,X,X| ` |  . . .-.$X<XvXhX<X+X1.;.] ] ` ` +.,X",
"X.:X<XR.=.<X,X*X:X#X#X2X>X<X4X@X .` ` ] ]  .#X .:.-.` /.<X*X&.XX4X:X:X$X#X$XaX-X4X3XR.' ` ` ` ` R.OX",
"` *.*X#X#X#X X2.;.&.O.~.;.|.4X6XoX .` `  .oX@X| | ;.| ` .X<X#X#X#X~.1.-.| <.2.>.#X6X4X=.` ` ` =.,XR.",
"` ` .X X(.(.2.;.[ ` O.<.| R.1XfX4XXXE.E.%X=X..` | 2.@.` | :X~.~.~.2.+.` ` <.%...oXfX5X,X/././.2XE.] "
};
