/* XPM */
static char *_93b4990367841939f2bcf8fd73706b4gx2q4IOs5LEIC8B5[] = {
/* columns rows colors chars-per-pixel */
"50 50 85 1 ",
"  c #24C7C8",
". c #2EC8C9",
"X c #33C8C9",
"o c #36C8C9",
"O c #3BC9CA",
"+ c #3EC9CA",
"@ c #3DCCCD",
"# c #43CACB",
"$ c #45CACB",
"% c #40CBCC",
"& c #49CACB",
"* c #49CBCC",
"= c #4DCBCC",
"- c #4ACDCE",
"; c #4CCCCD",
": c #51CCCC",
"> c #55CCCD",
", c #59CECE",
"< c #5CCFD0",
"1 c #5CD0D1",
"2 c #63CECF",
"3 c #62CFD0",
"4 c #67CFD0",
"5 c #61D0D1",
"6 c #65D0D1",
"7 c #6BD1D2",
"8 c #6DD1D2",
"9 c #6ED3D4",
"0 c #6AD4D5",
"q c #6FD5D6",
"w c #72D2D3",
"e c #76D3D4",
"r c #71D4D4",
"t c #7AD4D5",
"y c #7ED7D7",
"u c #7CD7D8",
"i c #80D6D7",
"p c #87D6D7",
"a c #8AD6D7",
"s c #88D7D8",
"d c #83D8D8",
"f c #84D8D9",
"g c #8EDADB",
"h c #8FDBDC",
"j c #91D8D9",
"k c #91DCDD",
"l c #95DDDE",
"z c #9ADBDB",
"x c #99DFDF",
"c c #9DDFDF",
"v c #9CDFE0",
"b c #9FE0E1",
"n c #A2E0E1",
"m c #A7E2E2",
"M c #A9E3E4",
"N c #ABE4E4",
"B c #AEE4E5",
"V c #B1E5E6",
"C c #BAE7E8",
"Z c #BBE9E9",
"A c #BFEAEA",
"S c #C3EBEB",
"D c #C4EAEB",
"F c #C1ECED",
"G c #C5ECEC",
"H c #C8EDEE",
"J c #CCEDED",
"K c #D5EEEF",
"L c #D2F0F0",
"P c #D7F2F2",
"I c #DBF2F3",
"U c #DFF3F4",
"Y c #DFF5F5",
"T c #E0F5F6",
"R c #E5F7F7",
"E c #E8F6F7",
"W c #EAF7F8",
"Q c #EBF8F8",
"! c #EEFAFA",
"~ c #F0FAFB",
"^ c #F5FBFB",
"/ c #F6FBFC",
"( c #F7FDFD",
") c #FAFEFE",
"_ c white",
/* pixels */
"XXXXXXXXXXXXXXXXXXXXXXXXXXXXXXXXXXXXXXXXXXXXXXXXXX",
"XXXXXXXXXXXXXXXXXXXXXXXXXXXXXXXXXXXXXXXXXXXXXXXXXX",
"XXXXXXXXXXXXXXXXXXXXXXXXXXXXXXXXXXXXXXXXXXXXXXXXXX",
"XXXXXXXXXXXXXXXXXXXXXXX .XXXXXXXXXXXXXXXXXXXXXXXXX",
"XXXXXXXXXXXXXXXXXXXXXX8)jXXXXXXXXXXXXXXXXXXXXXXXXX",
"XXXXXXXXXXXXXXXXXXXXXX8(jXXXXXXXXXXXXXXXXXXXXXXXXX",
"XXXXXXXXoep;X:ptOXXXXX8(jX6a7oOa7p6Xo8p8poXXXXXXXX",
"XXXXXXXXc)Eyr(~(P+XXXX8(jn)!)V-((!)5n_~)E%XXXXXXXX",
"XXXXXXXXv)F<AT*u)tXXXX8(jRSoV!5(n1)kYHoNW%XXXXXXXX",
"XXXXXXXX;0RKZR5k)rXXXX8(jRJ;AQ1^l>)kIL:ZW%XXXXXXXX",
"XXXXXXX.J))n1Q))GOXXXX8(jg()(b-/l>)gh))(W%XXXXXXXX",
"XXXXXXXXO:=oX+:=oo+++++>+X$>*oo>+o>#qd,ZRoXXXXXXXX",
"XXXXXXXXXXXXXXXXXc((()zXXXXXXXXXXXXXk)()mXXXXXXXXX",
"XXXXXXXXXXXXXXXXX*4444&XXXXXXXXXXXXXo;2>oXXXXXXXXX",
"XXXXXXXXXXXXXXXXXXXXXXXXXXXXXXXXXXXXXXXXXXXXXXXXXX",
"XXXXXXXXXXXXXXXXXXXXXXXXXXXXXXXXXXXXXXXXXXXXXXXXXX",
"XXXXXXXXXXXXXXXXXXXXXXXXXXXXXXXXXXXXXXXXXXXXXXXXXX",
"XXXXXXXXXXXXXXXXXXXXXXXXXXoXXXXXXXXXXXXXXXXXXXXXXX",
"XXXXXXXXXXXXXXXXXXXXXXXXX-G;XXXXXXXXXXXXXXXXXXXXXX",
"XXXXXXXXXXXXXXXXXXXXXXXX.AUoXXXXXXXXXXXXXXXXXXXXXX",
"XXXXXXXXXXXXXXXXXXXXXXXXd)S.XXXXXXXXXXXXXXXXXXXXXX",
"XXXXXXXXXXXXXXXXXXXXXXX;R_xXXXXXXXXXXXXXXXXXXXXXXX",
"XXXXXXXXXXXXXXXXXXXXXXXA__yXXXXXXXXXXXXXXXXXXXXXXX",
"XXXXXXXXXXXXXXXXXXXXXXf)_!>XXXXXXXXXXXXXXXXXXXXXXX",
"XXXXXXXXXXXXXXXXXXXXX:E__ToXXXXXXXXXXXXXXXXXXXXXXX",
"XXXXXXXXXXXXXXXXXXXXoA___S.XXXXXXXXXXXXXXXXXXXXXXX",
"XXXXXXXXXXXXXXXXXXXXf____xXXXXXXXXXXXXXXXXXXXXXXXX",
"XXXXXXXXXXXXXXXXXXX:E____f@@@@@@oXXXXXXXXXXXXXXXXX",
"XXXXXXXXXXXXXXXXXXoA____________R#XXXXXXXXXXXXXXXX",
"XXXXXXXXXXXXXXXXXXf____________)fXXXXXXXXXXXXXXXXX",
"XXXXXXXXXXXXXXXXX;Q____________CoXXXXXXXXXXXXXXXXX",
"XXXXXXXXXXXXXXXXoD____________Y*XXXXXXXXXXXXXXXXXX",
"XXXXXXXXXXXXXXXXf____________)9XXXXXXXXXXXXXXXXXXX",
"XXXXXXXXXXXXXXXoCEEEEEEQ)____mXXXXXXXXXXXXXXXXXXXX",
"XXXXXXXXXXXXXXXXXoooooo5~___L+XXXXXXXXXXXXXXXXXXXX",
"XXXXXXXXXXXXXXXXXXXXXXXs___!3XXXXXXXXXXXXXXXXXXXXX",
"XXXXXXXXXXXXXXXXXXXXXXXM___hXXXXXXXXXXXXXXXXXXXXXX",
"XXXXXXXXXXXXXXXXXXXXXX.P__SoXXXXXXXXXXXXXXXXXXXXXX",
"XXXXXXXXXXXXXXXXXXXXXX-R_R;XXXXXXXXXXXXXXXXXXXXXXX",
"XXXXXXXXXXXXXXXXXXXXXXw))iXXXXXXXXXXXXXXXXXXXXXXXX",
"XXXXXXXXXXXXXXXXXXXXXXk_BXXXXXXXXXXXXXXXXXXXXXXXXX",
"XXXXXXXXXXXXXXXXXXXXX.SI+XXXXXXXXXXXXXXXXXXXXXXXXX",
"XXXXXXXXXXXXXXXXXXXXXXA6XXXXXXXXXXXXXXXXXXXXXXXXXX",
"XXXXXXXXXXXXXXXXXXXXXX.XXXXXXXXXXXXXXXXXXXXXXXXXXX",
"XXXXXXXXXXXXXXXXXXXXXXXXXXXXXXXXXXXXXXXXXXXXXXXXXX",
"XXXXXXXXXXXXXXXXXXXXXXXXXXXXXXXXXXXXXXXXXXXXXXXXXX",
"XXXXXXXXXXXXXXXXXXXXXXXXXXXXXXXXXXXXXXXXXXXXXXXXXX",
"XXXXXXXXXXXXXXXXXXXXXXXXXXXXXXXXXXXXXXXXXXXXXXXXXX",
"XXXXXXXXXXXXXXXXXXXXXXXXXXXXXXXXXXXXXXXXXXXXXXXXXX",
"XXXXXXXXXXXXXXXXXXXXXXXXXXXXXXXXXXXXXXXXXXXXXXXXXX"
};
