/* XPM */
static char *_d6c361df02840d7be8af43bc209664d0x9UrAYfqtqkypcA[] = {
/* columns rows colors chars-per-pixel */
"50 50 71 1 ",
"  c #D8636F",
". c #D8646F",
"X c #D86470",
"o c #D96873",
"O c #DA6B76",
"+ c #DA6C77",
"@ c #DA6E79",
"# c #DB707B",
"$ c #DB737D",
"% c #DB757F",
"& c #DC757F",
"* c #DB7780",
"= c #DC7881",
"- c #DD7B84",
"; c #DD7E87",
": c #DE7F89",
"> c #DE818A",
", c #DE848C",
"< c #DF8890",
"1 c #E08B93",
"2 c #E08C93",
"3 c #E08C94",
"4 c #E09097",
"5 c #E19299",
"6 c #E1969C",
"7 c #E2999F",
"8 c #E29AA0",
"9 c #E29CA2",
"0 c #E49EA4",
"q c #E5A1A7",
"w c #E4A3A8",
"e c #E5A6AB",
"r c #E5A7AC",
"t c #E6ABAF",
"y c #E7ABB0",
"u c #E7AEB2",
"i c #E7AFB4",
"p c #E8AFB3",
"a c #E9AFB4",
"s c #E9B2B6",
"d c #EAB5BA",
"f c #EBB7BC",
"g c #EBBBBF",
"h c #EBBEC2",
"j c #ECBFC3",
"k c #EDC0C3",
"l c #EDC2C5",
"z c #EDC4C7",
"x c #EEC5C9",
"c c #EFC8CB",
"v c #EFC9CC",
"b c #EFCCCF",
"n c #F0CACD",
"m c #F0CCCF",
"M c #F0CDD0",
"N c #F1D1D3",
"B c #F1D2D4",
"V c #F2D4D7",
"C c #F3D7D9",
"Z c #F3D8DA",
"A c #F4DBDD",
"S c #F4DDDF",
"D c #F6E1E3",
"F c #F6E3E5",
"G c #F9EAEB",
"H c #FAEEEF",
"J c #FBF3F3",
"K c #FBF3F4",
"L c #FCF5F6",
"P c #FDF9F9",
"I c #FEFDFD",
/* pixels */
"                                                  ",
"                                                  ",
"                                                  ",
"                                                  ",
"                                                  ",
"               OO     O+                          ",
"               ,lX   Xl<                          ",
"                0dX  dq                           ",
"                 pe ws   %n@     9                ",
"                  jdjX   qq.   5>x                ",
"                  >G,    q9    ,%x                ",
"                 $m;n%   jZ3cllt<x                ",
"                ov> ;cO  w9j=$xi1x                ",
"               Xk5   3lX w9j>;xi1x                ",
"               2w     03 86;Mlge,g                ",
"                                                  ",
"                                                  ",
"                                                  ",
"                                                  ",
"                                                  ",
"                                                  ",
"                                                  ",
"                                                  ",
"                                                  ",
"                                                  ",
"                                                  ",
"                 o:O                              ",
"               XuJILsX                            ",
"               uIDdSIs                            ",
"              $JCX XNL=                           ",
"              sP,   ;Pg                           ",
"              AF     SD                           ",
"             OHv     lJ@                          ",
"             $Pd     uI=                          ",
"             *Iu     wI;                          ",
"             %Ps     tI;                          ",
"             +Jz     hL$   X                      ",
"             XFA     VGX  9>77 qe 3pO             ",
"              hL*   #Kx  Xs &u>e05d>t             ",
"              >Pl   gP<  53 $ur-=fq s             ",
"               xIh4gPb  XsX $uq,:se s             ",
"               OBIIIC+  <8  $u#gf=gy6             ",
"                X5y6X   aX  X* ;; @<              ",
"                       X3                         ",
"                                                  ",
"                                                  ",
"                                                  ",
"                                                  ",
"                                                  ",
"                                                  "
};
