/* XPM */
static char *d61672d4e5e64759b054c66643407452QSpgqXkIVg4ndp2K[] = {
/* columns rows colors chars-per-pixel */
"50 50 64 1 ",
"  c #D8636F",
". c #D86571",
"X c #D96873",
"o c #D96874",
"O c #DA6C77",
"+ c #DA6D78",
"@ c #DA707A",
"# c #DB737D",
"$ c #DB757F",
"% c #DB7781",
"& c #DC7680",
"* c #DC7A83",
"= c #DC7C85",
"- c #DD7F88",
"; c #DE838B",
": c #DE858D",
"> c #DF888F",
", c #DF8A92",
"< c #DF8C93",
"1 c #E08F96",
"2 c #E19399",
"3 c #E1949B",
"4 c #E2979E",
"5 c #E39AA0",
"6 c #E39CA2",
"7 c #E49FA5",
"8 c #E4A0A6",
"9 c #E5A3A9",
"0 c #E4A5A9",
"q c #E6A6AC",
"w c #E6A8AD",
"e c #E7ABB0",
"r c #E6ACB1",
"t c #E8ABB0",
"y c #E8AEB2",
"u c #E8B1B6",
"i c #E9B3B8",
"p c #EAB7BB",
"a c #EBB8BD",
"s c #EBBCBF",
"d c #ECBFC3",
"f c #ECC0C3",
"g c #ECC1C4",
"h c #EEC4C7",
"j c #EEC6CA",
"k c #EFC8CB",
"l c #EFCBCD",
"z c #EFCDCF",
"x c #F0CFD2",
"c c #F1D2D5",
"v c #F2D5D7",
"b c #F2D6D8",
"n c #F3D9DB",
"m c #F4DADC",
"M c #F4DCDE",
"N c #F7E2E3",
"B c #F6E3E5",
"V c #F7E5E6",
"C c #F8E7E8",
"Z c #F9EDEE",
"A c #FAF0F1",
"S c #FCF6F6",
"D c #FDF9F9",
"F c white",
/* pixels */
"r                                                 ",
"0                                                 ",
"0                                                 ",
"0                                                 ",
"0                                                 ",
"0                                                 ",
"0                                                 ",
"0                ,     ;+                         ",
"0                9q   *h.                         ",
"0                 u2 Oj+  @@                      ",
"0                 .g;g-   l,   o,0                ",
"0                  oN5    g    u<q                ",
"0                  9ug.  +M,ww76,q                ",
"0                 1p ,a   g49;fs<q                ",
"0                =g.  8w  g66&ds<q                ",
"0                yO    w@ uXgdur:5                ",
"0                                                 ",
"0                                                 ",
"0                                                 ",
"0                                                 ",
"0                                                 ",
"0                                                 ",
"0                                                 ",
"0                                                 ",
"0                                                 ",
"0                                                 ",
"0          .;;;;;;;;+ O;;;;O                      ",
"0          oDFFFFFFD= pFFFF0                      ",
"0          .222224Sg  bv222#                      ",
"0                aA@ oAw                          ",
"0               $Sp  :F*                          ",
"0               jZo  uFZN5                        ",
"0              ;D0   cMzZF0                       ",
"0              cB.   ;  omAX                      ",
"0             1D4        >F4                      ",
"0            .Mn.        .Sw   o                  ",
"0            7D,         oSw  oq=e.i0op8          ",
"0           XCx    .4.   3F<  6= t3,q7;r.         ",
"0           rD=    -Da. #CB.  t  y7%9pO9#         ",
"0          OAg      dFVbAA>  2:  y12w41y.         ",
"0          +k#       0bMg=   w.  2.04.q2          ",
"0                           #2                    ",
"0                                                 ",
"0                                                 ",
"0                                                 ",
"0                                                 ",
"0                                                 ",
"0                                                 ",
"0                                                 ",
"0                                                 "
};
