/* XPM */
static char *_339a92971924181d7196b7a9bbade8a0Sv2Jlu5EjTMZ99D[] = {
/* columns rows colors chars-per-pixel */
"50 50 57 1 ",
"  c #5BB85B",
". c #5CB85C",
"X c #63BA63",
"o c #65BB65",
"O c #66BC66",
"+ c #6BBD6B",
"@ c #6DBD6D",
"# c #70BE70",
"$ c #74C074",
"% c #7AC27A",
"& c #7CC37C",
"* c #7DC47D",
"= c #80C580",
"- c #85C685",
"; c #8AC78A",
": c #8AC88A",
"> c #8DC98D",
", c #90C990",
"< c #95CB95",
"1 c #95CD95",
"2 c #9BCE9B",
"3 c #9DCF9D",
"4 c #9BD09B",
"5 c #9ED09E",
"6 c #A2D0A2",
"7 c #A6D3A6",
"8 c #A5D7A5",
"9 c #AAD4AA",
"0 c #AFD7AF",
"q c #B3D9B3",
"w c #B5DAB5",
"e c #B8DBB8",
"r c #B8DCB8",
"t c #BCDDBC",
"y c #C1DFC1",
"u c #C2E1C2",
"i c #C5E0C5",
"p c #CAE3CA",
"a c #CBE4CB",
"s c #CDE5CD",
"d c #D1E6D1",
"f c #D2E8D2",
"g c #D7EAD7",
"h c #DBECDB",
"j c #DCEDDC",
"k c #E0EFE0",
"l c #E3F0E3",
"z c #E5F1E5",
"x c #E9F3E9",
"c c #EAF4EA",
"v c #ECF5EC",
"b c #F0F7F0",
"n c #F2F8F2",
"m c #F6FAF6",
"M c #F8FBF8",
"N c #FBFDFB",
"B c #FEFFFE",
/* pixels */
"9.................................................",
"6.................................................",
"6.................................................",
"6.................................................",
"6.................................................",
"6.................................................",
"6.................................................",
"6.................................................",
"6...............=w................................",
"6..............#cB:...............................",
"6.............XjBs................................",
"6...........q+pBjo................................",
"6..........5BvBv#...>0&-<o3w+2w#5q+27#w+..........",
"6..........olBm-....w1,3w-w+&r+*f0wt:1qX..........",
"6...........$v2.....$u56e>9.=0.=t-:%i%57..........",
"6............o......9u+ur.wu$qu%ri&qt,a-..........",
"6.................................................",
"6.................................................",
"6.................................................",
"6.................................................",
"6.................................................",
"6.................................................",
"6.................................................",
"6.................................................",
"6.................................................",
"6.................................................",
"6...........&&#....%1-......+&&&&X................",
"6..........<BBd...tBBBj+....yBBBB;................",
"6..........&1kd..3Be%1ns... lp>>>o................",
"6............gd. hg...7m@..+M,....................",
"6............gd. x0...%B-..1MO....................",
"6............gd.......:N&..yNvh>..................",
"6............gd.......iv...jgsbN<.................",
"6............gd......-N0...% .+lz.................",
"6............gd.....XzjX.......1B&................",
"6............gd.....um&........OB,................",
"6............gd....2B7.........+B,................",
"6............gd...#ns.....1....6N$..@X.o.o........",
"6............gd...gc+....>N9..$vg..+:7=445@.......",
"6............gd..qBbzzzz&.aBkgmv$..,.2:$8=%.......",
"6............09.oissssss%..9ght#..+-.-@1%1........",
"6...........................  ....+X..............",
"6.................................................",
"6.................................................",
"6.................................................",
"6.................................................",
"6.................................................",
"6.................................................",
"6.................................................",
"6................................................."
};
