/* XPM */
static char *_0a6f1d8acd14ce093883d13d8c095b1XO6SQQfXfx3x4ku7[] = {
/* columns rows colors chars-per-pixel */
"50 50 141 2 ",
"   c #5C86C6",
".  c #5C89C7",
"X  c #5C86C8",
"o  c #5E8BC9",
"O  c #628EC6",
"+  c #618CCA",
"@  c #6492CD",
"#  c #6A96CD",
"$  c #6C9ACE",
"%  c #7496CC",
"&  c #719ECF",
"*  c #6696D0",
"=  c #6996D1",
"-  c #6799D2",
";  c #6B9BD3",
":  c #6F9FD8",
">  c #719DD2",
",  c #709FD8",
"<  c #6FA1D9",
"1  c #73A2D4",
"2  c #79A5D5",
"3  c #7BA9D6",
"4  c #73A4DA",
"5  c #7CA7D8",
"6  c #76A9DE",
"7  c #7BACDC",
"8  c #7EB0DD",
"9  c #77ABE1",
"0  c #79ADE1",
"q  c #7DB3E5",
"w  c #7FB6E8",
"e  c #8AA7D3",
"r  c #83ABD7",
"t  c #88ABD7",
"y  c #80AFDA",
"u  c #98AFD7",
"i  c #90ADD9",
"p  c #83B3DC",
"a  c #88B6DE",
"s  c #87B9DE",
"d  c #89B9DE",
"f  c #9BBBDF",
"g  c #A5BDDE",
"h  c #81B6E6",
"j  c #84B9E5",
"k  c #8BBCE2",
"l  c #80B6E8",
"z  c #86BCE9",
"x  c #89BEEA",
"c  c #92BDE2",
"v  c #9BBEE3",
"b  c #93BEE9",
"n  c #A2BFE2",
"m  c #8EC1E4",
"M  c #8CC2E9",
"N  c #8FC9EC",
"B  c #92C4E5",
"V  c #9FC7E6",
"C  c #96CAE7",
"Z  c #9ACAE7",
"A  c #93C5E9",
"S  c #9AC2E9",
"D  c #94CAEB",
"F  c #97CEEF",
"G  c #99C9E8",
"H  c #9ACAE8",
"J  c #98CCE8",
"K  c #9ACDEB",
"L  c #98CDEF",
"P  c #9AD0EF",
"I  c #9DD2ED",
"U  c #9FD5EF",
"Y  c #9DD2F0",
"T  c #9ED4F1",
"R  c #ABC4E4",
"E  c #A5CAE7",
"W  c #ADC8E6",
"Q  c #A3CCEB",
"!  c #ACCBEA",
"~  c #B2CEE8",
"^  c #A2D5EE",
"/  c #ABD2EC",
"(  c #AAD2ED",
")  c #ADD5EF",
"_  c #A4D8EF",
"`  c #A9DBEF",
"'  c #B5D5ED",
"]  c #BAD1EC",
"[  c #B2D9EF",
"{  c #A3D6F0",
"}  c #A2D6F1",
"|  c #ADD7F1",
" . c #A3D9F3",
".. c #A5DBF3",
"X. c #A3DCF2",
"o. c #A7DCF3",
"O. c #A7DDF5",
"+. c #A8DAF2",
"@. c #AFDAF1",
"#. c #AADDF4",
"$. c #AADFF4",
"%. c #A8DFF6",
"&. c #A9DFF6",
"*. c #B6D5F0",
"=. c #B3DDF3",
"-. c #B6DCF1",
";. c #BCDDF2",
":. c #A7E1F4",
">. c #AAE1F5",
",. c #A9E2F6",
"<. c #B3E1F5",
"1. c #B8E0F4",
"2. c #BCE3F5",
"3. c #BFE5F7",
"4. c #C3D4ED",
"5. c #C2D6EC",
"6. c #D2DDEE",
"7. c #C7DAF0",
"8. c #C3DDF2",
"9. c #CADDF2",
"0. c #D3DDF1",
"q. c #C2E3F3",
"w. c #C4E0F4",
"e. c #C3E4F5",
"r. c #C9E1F3",
"t. c #CBE3F4",
"y. c #CCE5F5",
"u. c #CEE8F6",
"i. c #CCE6F8",
"p. c #D1E1F4",
"a. c #D3E6F7",
"s. c #DBE2F2",
"d. c #D2E8F7",
"f. c #D2E6F8",
"g. c #DAE7F8",
"h. c #DAE9F8",
"j. c #DDEAF8",
"k. c #E2E7F6",
"l. c #E0EAF6",
"z. c #E4EBF7",
"x. c #E1EAF9",
/* pixels */
"    X 0 @         1 A o 6 w q q q q q q q q w = %.m       = 6 o       + D > @ w w q q q q q q q w 6 ",
"    4 l o         + A c O 0 h l l w q q q < o   1 B     o w 6 o         6 U % * w l l w q q q w + o ",
"  + 6 w q @ o     @ A a.g # w h q @     * q : X 1 B o   * w l < @ X X X 4 @.s.; 4 l l 6       6 0 + ",
"= 6 w 6 6 w 6 = ; 1 ( p.) A M q =   X     = q @ k P 4 = w q 6 q l ; = = h r.7.L A z 6         o 9 6 ",
"l l 6 o o 1 4 4 q F X.M l D L M p #         6 j ,.P h l w =   = 4 4 6 M  .P h x L D k 7         + h ",
"l 6 +     X X X 7  .7 6 w w h B %.C @ X   3 D t.w.M h l :           # D A 1 w w l p  .o.p o o o B | ",
"0 @       X   a Y z   : w w # @ C %.4.G G { ,.l.1.D h < o         O K F 1 X w w 6 o 1 %.-.~ K G %.w.",
"6           p +.A @   o 9 w     @ K h.d.I x x S ,.O.A @           I ^ 6 o X = l 4   X 2 3.x.3.M x M ",
"%.%.+.......%.u.S .   o 6 w 0 o   O _ { h < o o 1 %.%.%.%.%...O...<.9.4 X X + l w = . . r %.A w o o ",
"2.x.z.2.d.:.e.h.S @ @ 4 l l l 6 + # ^ h 4 X     X 3 ..d.z.g.q.3.:.g.9.6 @ @ w l l l = @ p F q +     ",
"I e.l.2.C C C _ D M x q 6 6 6 0 b +.{ 0             p ..a.g.{ C C K  .M M j 6 6 6 6 w E o.M =       ",
"> { q.{ o     k o.%. .7       1 *.y.x 0             X m ,.w.j . . @ T :.%.F o X X X x u.[ w =       ",
"6 D U z 4 4 4 0 A s s d k R k k d W x 0           X = q o.A 0 4 4 4 x m a d k v n k d c ! w =       ",
"Y L z l l l l l w .   d e.x._ 1 X # q 0           = M Y A l l l l l h 4 X   =.j.u.B + o 4 w =       ",
" .z h l l l l l l .   # ^ 2.>   X   q w :       @ x o.A l l l l l l l 4 X   5 2.V + X X = l q +     ",
"K o o o o o 4 l l 0 . X D 1 X     4 w l w q q @ x e.e.3 o o o o + w l w = X # K +   X + w l h q q 4 ",
"4.+ X         4 q h w F ,.$ X o 4 w q q q q h @.%.e.l.i           + q w w w %.G     + q w q q q l A ",
",.A @             h M { 2.y > < w 0 +     ; z t.{ ;.2.,.1             : x M 2.( 1 ; q w <       0 ( ",
"K :.B + + 7 7 7 7 D %.y.g.<.O.j 4 @         D A h x B ..o.1   1 7 7 7 j T :.l.e.,.L 6 4       X ; ^ ",
"# K :.m k ,. .K L D m ( ^ O.,.U 1         1 ^ = 6 4   y %.{ d I ,.L L F m D *.U ,.%.k .         c C ",
"  > I L D A M h : ; = h 4 8 <.q.I $     > ^ B + @ 0 *   p ..A D A l 0 ; + 9 q 1 C q.<.k       k _ 2 ",
"    B x h l w < o   = 4 o B ,.<.,.I D G ' W @   @ h :   @ { h h h q @ X   9 # > ^ <.,.o.G G G t.1   ",
"    B +.j 6 @ o   + 4 o k %.x x x x ..<.u.+.{ # q l :   @ %.F w = +     1 = @ ..P j x x D ,.u.2.^ k ",
"O a @.g.@.h 4 o o q 6 : q q 9 o o 6 h j z F O.O.j j 1 O { 2.u.D w o o : w # q h q = o @ w h z z O.O.",
",.,.8.6.9.{ x x x x x 4             o 0 0 7 0 X.O.o.,.%.<.6.0.2.D x x x M x o             ; 0 0 0 m ",
"o.I p # 1 { ^ { %.3.2.k + + + + + + + + + + + _ -.P ,.I I = = m ^ ^ ..<.3.,.@ + + + + + + + o o o 7 ",
"p # 0 h h h h h D f.p.j +                     _ y.%.I # 4 h l h h w x =.j.| :                     3 ",
"    = q w : : : : %.' 6 6 4               * 4 A ,.I >   o 4 h 6 : < : k 3.a q 4 #               , 8 ",
"      9 =   X X   p D @ 0 h 6 6 4 4 6 6 6 0 w 1 ,.B       # 6 + X X X # K 1 = w 0 4 4 4 4 4 4 4 h 7 ",
"    : q o   X X X @ A p + q w w w w h h h 4 # o p B     o 0 4 X X X X   7 D o : h w w w h h h w # + ",
"    6 l 7 X       + M 8.u o w l h ; + + : q #   1 B     + w w =   X X X 4 { 6.o < w l q o o o 0 9   ",
"+ < l q q w 4 + + # ! k.;.x z h :         : q + 2 L , + q w q q w + + + 6 t.s.I z j q o   X   o q 4 ",
"w w q + + 0 0 0 q A o.N w P T j 1 O     X   6 1 ,.P w w w 4   : 0 0 0 z T  .j M  .A 3 $         + 7 ",
"h q #         X 7 ..k 0 l h z L ,.m +     > x ;.2.D w w 6           # D I 7 h l h M o...1 X     y ^ ",
"q *         X 5 D A X < l l : $ K ,.R a a K :.j.e.M h 6 o         + k D 4 X w l 0 @ p %.` f a d %.q.",
"6 X   X X X 2 ^ F =   @ 0 w     > I g.y. .D D ! %...M #           B ..h + X : w 4     p e.g.2.F D G ",
"I D G G C C ^ y.S .     6 h 4   X ; =.=.x 4 * - p ,. .K D G G G G %.8.4   X + l q @   + c 2.Q j - * ",
"2.h.j.1.d.:.q.z.S o X ; w l w 4   . U x 6 o   X o d %.a.j.a.3.3.,.g.0.4     0 l l q @ X 3 L j = X X ",
"%.y.z.2.+...+.%.M h h q w q q w h I O.q o         o k @.j.g.%.%...%._ j h w w q q q w k O.D =       ",
"1 o.y.=.+ X   k %.,.{ 4 .     ; ' q.x q               C <.u.k     @ o.:.:.A o       h a.` w =       ",
"< D  .x = * = 6 P D G d 2 i 3 p C 4.b 0             + 7 ..F 6 = = = x P D G 3 r t 2 B Q ] w =       ",
"A F M l w h h l h .   d 2.x.` y   ; w 0           @ h D L h l l l h h 4 X   %.a.u.G # o 6 w =       ",
"X.M w l h h h h l o   1 ' e.p     o q q =   X   + h  .P h l l l w l w 4     k i.( $   X = w 6 +     ",
"I = = = = = 6 l l 4     C p o     : w l q 6 6 + q -.2.7 = = = = = w l q @   @ I >     + 0 w w 9 6 : ",
"4.          + 6 l w 9 k ..$ .   ; w l l h l l K  .e.x.e           = l l q 6 P G       0 w w w w w M ",
"@.k o         o o h j L ,.& o = q h # o o 4 h p.%.q.y.+.@           + 1 w h %.Z o o 6 w 6 o o o w Q ",
" .,.s + o $ # # # x %.y.x.<. .h q *   X X X D { h A ^ o...@   @ # # # 6 Y %.x.u.O.D q 6 X X     ; o.",
"& { %.p 7 %...^ { U I -.[ %.,.D #     X X # I # 7 4   k %.^ 1 C ,.{ { T P T 9._ ,.:.p o         y A ",
"  2 ^ U I I M w 6 1 = h 6 m ,.2.D #     # G K @ @ 6 @   B O.I I P h q 4 @ 0 w 8 I 2.,.3       3 ..p ",
"    B M l l w 6 o   = 0 @ p =.e.,.C d d E ! #   @ w :   @ { h h h w =     0 < # G q.<.o.k k k ;.p X "
};
