/* XPM */
static char *eb532ca46dca430396c048217f484dcd0fxXbRJWxXiunwZ5[] = {
/* columns rows colors chars-per-pixel */
"64 64 240 2 ",
"   c #1F1816",
".  c #231917",
"X  c #261C1A",
"o  c #2A1E1B",
"O  c #2C201E",
"+  c #32221F",
"@  c #362825",
"#  c #342B28",
"$  c #3D3733",
"%  c #3F3836",
"&  c #3E3A39",
"*  c #432D25",
"=  c #44322A",
"-  c #4B3529",
";  c #4B352C",
":  c #52362A",
">  c #573529",
",  c #483633",
"<  c #433B36",
"1  c #433C39",
"2  c #493F38",
"3  c #563A33",
"4  c #543B34",
"5  c #5C3D36",
"6  c #643828",
"7  c #6C3D2C",
"8  c #723F2D",
"9  c #663E35",
"0  c #46413D",
"q  c #4D433C",
"w  c #51463D",
"e  c #5B443A",
"r  c #52483F",
"t  c #75422E",
"y  c #68453A",
"u  c #6C463D",
"i  c #7B4633",
"p  c #7B4836",
"a  c #74473B",
"s  c #7C4D3D",
"d  c #76503F",
"f  c #4C4643",
"g  c #4E4D44",
"h  c #534943",
"j  c #504E44",
"k  c #594D44",
"l  c #554E49",
"z  c #555245",
"x  c #5C5644",
"c  c #5E5845",
"v  c #56524A",
"b  c #5A534C",
"n  c #5C5651",
"m  c #5D5A52",
"M  c #595856",
"N  c #744C42",
"B  c #7A4D43",
"V  c #615544",
"C  c #635B46",
"Z  c #6E524D",
"A  c #675C49",
"S  c #695E49",
"D  c #795749",
"F  c #7B544A",
"G  c #625B55",
"H  c #665C57",
"J  c #645D59",
"K  c #6A614A",
"L  c #7C624E",
"P  c #686355",
"I  c #66615B",
"U  c #6B635E",
"Y  c #776A58",
"T  c #676461",
"R  c #6C6662",
"E  c #6E6964",
"W  c #736B66",
"Q  c #786E66",
"!  c #746D69",
"~  c #796F68",
"^  c #76716B",
"/  c #7B726C",
"(  c #7D7572",
")  c #7A7874",
"_  c #834B35",
"`  c #894D36",
"'  c #844E3A",
"]  c #8A4F38",
"[  c #85513D",
"{  c #8C523C",
"}  c #92543C",
"|  c #875647",
" . c #8D5742",
".. c #845A4C",
"X. c #8B5B4C",
"o. c #935B45",
"O. c #935846",
"+. c #945C4B",
"@. c #9B5E4C",
"#. c #8B5E52",
"$. c #945E52",
"%. c #A95952",
"&. c #94614C",
"*. c #9B614B",
"=. c #8B6457",
"-. c #966657",
";. c #9C6353",
":. c #A36455",
">. c #AA6555",
",. c #A86657",
"<. c #A36A57",
"1. c #AB6A56",
"2. c #A46B5A",
"3. c #AB6B5B",
"4. c #B46958",
"5. c #B26C5B",
"6. c #B3715C",
"7. c #BA735F",
"8. c #8A6B64",
"9. c #986D62",
"0. c #81766D",
"q. c #8B746A",
"w. c #987468",
"e. c #847A72",
"r. c #857977",
"t. c #8A7D74",
"y. c #967B74",
"u. c #A76E65",
"i. c #B86C62",
"p. c #AB7366",
"a. c #BC7562",
"s. c #B87767",
"d. c #B87C72",
"f. c #C1745E",
"g. c #C47563",
"h. c #C37A66",
"j. c #CA7A65",
"k. c #C67568",
"l. c #CC756A",
"z. c #C47C6B",
"x. c #CB7E6C",
"c. c #D0706A",
"v. c #D47D6C",
"b. c #87817A",
"n. c #8D837A",
"m. c #9B8177",
"M. c #92857B",
"N. c #97867A",
"B. c #9C847A",
"V. c #B9806A",
"C. c #A48579",
"Z. c #B68779",
"A. c #C7806C",
"S. c #CC816D",
"D. c #D3846D",
"F. c #D9836F",
"G. c #CB8575",
"H. c #D38572",
"J. c #D98372",
"K. c #DB8A75",
"L. c #D38B79",
"P. c #DB8C79",
"I. c #CD927C",
"U. c #D9927D",
"Y. c #E08576",
"T. c #E28C7C",
"R. c #E3907E",
"E. c #7E8285",
"W. c #8A8785",
"Q. c #938B84",
"!. c #958D88",
"~. c #98938A",
"^. c #8B9092",
"/. c #9A9895",
"(. c #A48C82",
"). c #A98E84",
"_. c #AB9086",
"`. c #A59489",
"'. c #AC9389",
"]. c #BD8D92",
"[. c #A69C96",
"{. c #B39E94",
"}. c #9EA19A",
"|. c #A4A29C",
" X c #ADA89D",
".X c #B8A397",
"XX c #969DA4",
"oX c #9CA4AB",
"OX c #A6A6A6",
"+X c #ADAAA3",
"@X c #AEAEAA",
"#X c #B4ACA5",
"$X c #B1AEAA",
"%X c #B4B2AD",
"&X c #B9B2AB",
"*X c #ACB0B6",
"=X c #B9B7B7",
"-X c #BBBAB5",
";X c #C39A97",
":X c #E78F83",
">X c #E49482",
",X c #E69A8A",
"<X c #D5A39F",
"1X c #CCB2A9",
"2X c #C5BAB5",
"3X c #BBD3BB",
"4X c #C4C2BC",
"5X c #C9C6BE",
"6X c #D6C4BB",
"7X c #B6BAC0",
"8X c #BEC2C7",
"9X c #C7C6C5",
"0X c #CCCBC6",
"qX c #CCCCCA",
"wX c #D7CBC5",
"eX c #D1CECA",
"rX c #D3D2CD",
"tX c #D9D5CF",
"yX c #CCCFD2",
"uX c #D1D2D2",
"iX c #D5D4D1",
"pX c #DAD6D2",
"aX c #DBD9D5",
"sX c #DADCD9",
"dX c #E3D8D8",
"fX c #DDE1DF",
"gX c #E3E2DD",
"hX c #E9E5DE",
"jX c #E4E4E3",
"kX c #EAE6E4",
"lX c #EBEAE6",
"zX c #E6E8E8",
"xX c #EBECEB",
"cX c #F1ECEB",
"vX c #EFF0EF",
"bX c #F2F2EE",
"nX c #EFEFF0",
"mX c #F4F4F3",
"MX c #F8F7F6",
"NX c #FEFEFD",
/* pixels */
"j j j j j j j j j j j j j j j j j j j j j j j j j j j j j j j j j j j j j j j j j j j j j j j j j j j j j j j j j j j j j j j j ",
"j g j j j j j j j j j j j j j j j j j j j j j j j j j j j j j j j j j j j j j j j j j j j j j j j j j j j j j j j j j j j j j j ",
"j g j j j j j j j j j j j j j j j j j j j g j j j j j j j j j j j j j j j j j j j j j j j j j j j j j j j j j j j j j j j j j j ",
"g j j j j j j j j j j j j j j j j j j j j j j j j j j j j j j j j j j j j j j j j j j j j j j j j j j j j j j j j j j j j j j j ",
"g j j j j j j j j j j j j j j j j j j j j j j j j j j j j j j j j j z j j j j j j j j j j j j j j j j j j j j j j j j j j j j j ",
"g j j j j j j j j j j j j j j j j j j j j j j z I G I U W ! ! W W ! ^ W R U I b j j j j j j j j j j j j j j j j j j j j j j j j ",
"j j j j j j j j j j j j j j j j j j j j j ( !.|.|.Q.Q.!.!.!.Q.n.t.e.e./ J W / ( / R n j j j j j j j j j j j j j j j j j j j j j ",
"j j j j j j j j j j j j j j j j j j v /.aXbXbXbXbXmXmXmXmXmXmXbXxXkXkXkXpXjXkXjXjXfXsX-X^ j j j j j j j j j j j j j j j j j j j ",
"j j j j j j j j j j j j j j j j j m ~.-X4X5X5X4X4X4X5X5X0XrXrXtXpXtXpXpX4XiXpXpXaXaXpXiXqX|.I g j j j j j j j j j j j j j j j j ",
"j j j j j j j j j j j j j j j v v q q w h h r r r h h h h h q h k k k k b k z k z b b b b v v b j j j j j j j j j j j j j j j j ",
"j j j j j j j j j j j j j j b h 0 0 0 q q q w h q q w w w w 0 q q q q q w q r w w h h h r r w w b v j j j j j j j j j j j j j j ",
"j j j j j j j j j j j j j v 1 < < < < < 1 1 1 1 < < < < < < f < & & & & & & < & $ $ $ $ $ $ $ $ $ 0 v j j j j j j j j j j j j j ",
"j j j j j j j j j j j j b q q q q q q h h w w w w q q q q 0 h 0 0 2 2 2 2 2 2 2 2 2 2 2 2 2 1 2 1 2 q b j j j j j j j j j j j j ",
"j j j j j j j j j j z G k k l h h h k b b k k k h h h h h h h h w w w w w q q q q w q w w h h f q q w h m j j j j j j j j j j j ",
"j j j j j j j j j z -XiXiXrXeX0X2X=X4X9X9X4X2X-X%X$X$X@X+X+XOX|.[./.[./.~.!.W.W.W.W.W.r.( W U G n b b b b m j j j j j j j j j j ",
"j j j j j j j j j @XNXNXNXNXNXNXNXMXMXNXNXNXNXNXNXNXNXNXNXMXbXxXxXxXmXMXMXMXmXmXmXmXxXxXjXyX7XOX/.^.W.W.) ) J j j j j j j j j j ",
"j j j j j j j j ) $X&X5X0X0XeXeX2X0XwXpXpXpXiXiXrXrXeX0X|.T q , = $ v ) -XqXqX9X9X9X9X9X-X*XOX/.^.W.W.) ) ) ^ v j j j j j j j j ",
"j j j j j j j m sXjXsXmXmXnXxXxXMXmXxXxXnXxXxXxXxXjX9Xh o o O O o O X X X & *XyXyXqXqX8X7X*X*XOXoXXXXXXXXX^.^.E.j j j j j j j j ",
"j j j j j j j @XkXzXxXlXzXzXlXxXNXNXgXjXlXzXmXvXxXrXh o o X X X O o X X .   & -XzXxXzXzXsXqX9X4X=X%X@X$X[.|.}./.E j j j j j j j ",
"j j j j j j E 0XtXgXjXaXtXrXtXiXhXNXlXrXpXdXzXjXfXE o X @ y | +.X...| u 9 * . # =XxXxXxXiX9X4X-X@XOX|.`.~.~.!.!.W.z j j j j j j ",
"j j j j j j !. X+X#X&X-X+X X X+X&XhXNX5X&X#X$X+X~.@ o : ;.a.A.S.j.g.g.g.5.@.u o M aXxXsX+X|.|./.~.!.~.M.r.b.b.b.W.U j j j j j j ",
"j j j j j H (.N.n.t.e.e.0./ Q Q / `.cX&X! U T P v + 3 2.a.x.D.D.D.v.j.j.f.4.@.a X % ^ ! H G J J m G P m m m m J m m j j j j j j ",
"j j j j j n.`.B.N.n.t.t.0./ ~ Q Q Q 0.Q U h n J # @ &.a.j.D.K.U.P.K.J.v.g.7.>.o.9 . O k b l l j f 1 h h h h h h h k b j j j j j ",
"j j j j v {.{.'.`.N.N.M.t.t.0./ ~ Q Q W E l J H @ 3 2.j.D.K.>X,X,X>XT.F.j.f.4.@.s + X $ n b b l f & h l l k k k k z m j j j j j ",
"j j j j W.wX.X.X{.`.!.N.M.t.t.0./ ! ! Q Q b U G @ 5 3.x.D.K.T.>X>XR.T.J.v.j.f.:.s @ O $ m n n b f 1 l v b l v l k k b z j j j j ",
"j j j j [.6X1X.X{.'.`.~.N.n.t.t.e./ / ( W.^ ( G @ ..a.x.D.K.T.>X>XR.T.J.v.j.g.1.B * @ 1 G G J G v f n n n v v v v v b b j j j j ",
"j j j g #X1X1X.X.X{.{.'.~.Q.M.n.r.e.( }.fXuXjXb., 3.3.X.2.G.>X>X>X>X>XP.x.3.;.;.-.5 @ b U U R R G n J J J n n n b v b G j j j j ",
"j j j m 6XwX6X2X1X.X{.'.`.!.M.n.r.e.e.}.iX3XgXQ.e p...F N u $.x.P.K.x.-.u 5 3 u -.F # I E E W W W.W.I R R J G n b b b I j j j j ",
"j j j W lXlXlXkXhXgXdXaXpXpXrXrXeX0X0X0X0X0X0X%XZ p.3.5.5.1.@.;.A.z.>.+.;.>.:.$.=.F # W.!.b.r.( b.) E E U J G G n n n H j j j j ",
"j j j W.zXzXlXlXxXxXxXbXbXbXbXbXmXmXmXMXMXMXMXkXy.s.a.+.F N :.>.H.S.>.@.B F o.1.-.F 1 zXjX/.|.! ! W E I b H U U U U U W v j j j ",
"j j j OXmXmXbXmXnXnXxXxXxXxXxXxXzXzXzXzXzXjXjX;Xd.x.g.4.4.5.4.a.J.g.1.i.;.$.o.1.1.F 0.qXrX~.+XW W R R U W ~ 0.0.t.t.t.t.b j j j ",
"j j j %XNXNXNXNXNXNXNXNXNXNXNXNXNXNXNXNXNXNXNX<Xd.z.x.v.v.v.v.j.v.g.5.k.l.g.f.7.3.=.u.dXNX+X-XE E R R R / e.t.b.n.n.n.M.b j j j ",
"j j j %XNXNXNXNXNXNXNXNXNXNXNXNXNXNXNXNXNXNXNX<Xd.z.v.T.:XT.v.j.T.v.5.x.J.Y.v.k.p.9.d.dXNX$X9XE R U U U / t.n.n.n.n.M.M.b j j j ",
"j j j %XNXNXNXNXNXNXNXNXNXNXNXNXNXNXNXNXNXNXNX<Xp.z.J.T.T.v.g.x.,XP.i.h.K.T.Y.x.p.9.x.cXNX%X9X! R U J U 0.r.n.t.k r r k j j j j ",
"j j j @XNXNXNXNXNXNXNXNXNXNXNXNXNXNXNXNXNXNXNX1Xp.s.H.J.g.g.5.@.a.i.>.4.g.v.J.k.p.8.].MXNX=XqX/ ! E R W 0.t.n.t.; * * ; j j j j ",
"j j j /.NXNXNXNXNXNXNXNXNXNXNXNXNXNXNXNXNXNXNXcX2Xp.h.4.X.y 5 9 X.B 5 5 F ;.i.i.u.r.eXNXNX%XqX( ! E R W 0.t.n.t.; - - e z j j j ",
"j j j ) NXNXNXNXNXNXNXNXNXNXNXNXNXNXNXNXNXNXNXNXjXu.s.a 3 B +.>.i.>.+.| 9 , F p.y.jXNXNXNX%XrX/ W R W ! 0.b.n.t.4 : - e j j j j ",
"j j j I MXNXNXNXNXNXNXNXNXNXNXNXNXNXNXNXNXNXNXNXMXy.2.X.X.o.<.G.I.I.V.+.s B #.9.[.NXNXNXNX%XiX( ! Q / / e.b.n.t.4 : * k j j j j ",
"j j j j jXNXNXNXNXNXNXNXNXNXNXNXNXNXNXNXNXNXNXNXNX+X..#.X.3.4.k.H.H.4.%.:.X.-.=.uXNXNXNXNX#XrX( ( / / / e.b.n.t.; : : k j j j j ",
"g j j j 9XNXNXNXNXNXNXNXNXNXNXNXNXNXNXNXNXNXNXNXNXiXZ N #.;.>.f.c.c.i.:.$.F #.8.mXNXNXNXNX#XrX( ( / / / e.b.n.0.; ; ; z j j j j ",
"g g j j /.NXNXNXNXNXNXNXNXNXNXNXNXNXNXNXNXNXNXNXNXpXF u ..:.X.B a N N F B u Z Y mXNXNXNXNX%XrX( ( ( / / t.n.n.0.; - q v j j j j ",
"g g j j m mXNXNXNXNXNXNXNXNXNXNXNXNXNXNXNXNXNXNX0Xw.;.u y =.2.;.N N F #.N 4 y -.9XNXNXNXNX%XiX( ( ( / / t.n.n.0.= = v j j j j j ",
"j g j j j 0XNXNXNXNXNXNXNXNXNXNXNXNXNXNXNXNXMX2X| X.6.| 5 ; N ....F ..F = 4 F 2.N y.eXNXNX%XrX( ( / / / t.n.n.0.= - b j j j j j ",
"j j j j j b.NXNXNXNXNXNXNXNXNXNXNXNXNXNXNXMX{.+.9 2.h.1.[ - @ 4 e 5 4 = 4 N :.1.a t B &XNX%XqX( ( / / / t.n.M.0.= e j j j j j j ",
"j j j j j j aXNXNXNXNXNXNXNXNXNXNXNXNXNXcX).+. .| 7.x.g.:.' : * * * ; e u ;.5.1.p 8 p s m.[.0X( / / / / t.n.M.0.= k j j j j j j ",
"g g g g g j W.NXNXNXNXNXNXNXNXNXNXNXNXwXp.o.+.{ <.j.D.D.7.1.@.| s u N ..<.6.7.5.' 8 _ _ { s 8.0./ / ! / t.n.n.0.w j g g g g g g ",
"g g g g g g g qXNXNXNXNXNXNXNXNXcX6XZ.*.o.o. .' w.S.D.K.H.h.6.1.5.6.5.5.6.a.a.7.o.i _ { {  .p [ &.8.! ~ t.n.n.0.v g g g g g g g ",
"g g g g g g g E mXNXNXNXNXMXdX{.2.*.+. . .o.{ ' 8.Z.K.P.P.H.x.h.h.h.h.a.a.h.h.a.-.p _ ] { } { { { | -.w.e.n.n./ j j j j j j j z ",
"j j j j j j k z [.gXhXlX6XC.;.*.@.o.{ { o.*.{ p q.m.Z.P.P.P.H.S.S.x.z.h.h.z.A.p.=.i i { } } } }  .|  .o.2.8.U P c c c c c c c c ",
"x x x x x x x x c E y.2.&.o.*. .*. .o.o.*.{ ' p y.(.m.Z.L.P.P.L.H.S.x.x.z.h.p.q.=._ _ { { } _ 6 6 7 7 _ { &.S c c c c c c c c c ",
"x x x x z x z x z x =.o. .o.{ { [ { { p > y { _ 9._.(.m.m.Z.L.U.P.L.H.x.s.9.q.q.-.] { ] { ] ' > > t i _ ` F c c c c c c c c c c ",
"S A C c x x z z z z c X.{ { { { _ p i 7 7 6 ' ' o.C.'.).C.m.m.C.Z.d.d.w.y.y.y.C.9.{ } { } { { 6 7 _ _ _ F c c c c c c c c c c c ",
"S S S S S C C C x x x V X.' ] ' ' ] ` ' _ _ 7 p { w.'.'.'.(.B.m.y.y.y.y.B.(.).).9.{ } } } } _ 7 8 _ _ F c x x x x x x x x x x x ",
"S S S S S S S S A C C C A F ' ' ` { ] ` _ ' t 6 t =._.'.'.'.).).(.).'.'.'._.).).-.{ } } } } 7 7 t ' D x x x x x x x x x x x x x ",
"S S S S S S S S S S S S S S L [ _ ] ] ` _ ` _ i 6 X.).)._.).)._._._.'.'.'.).).C.-.} } } } ` 7 8 s S x x c c x x x x x x x x x x ",
"A A A A A S S S S S S S S S K L | ` ` _ _ ` _ _ 8 ' y.)._.'._._.).).).'._._.).C.&.} { } } t p F C x x x c c c c x x x x x x x x ",
"A A A A A A A A A A S S S S K S K L  .i ` ` _ _ i p =.C._._._._._._._.)._.).).C.+.} { } { d S c c c c c x x x x x x x x x x x x ",
"A A A A A A A A A S S S S S S S S S K F  .` _ _ _ _ p y.).)._.).)._._.)._.).(.C.o.} { X.F x x x c c x x x x x x x x x x x x x x ",
"A A A A A A S S S S S S S S S S S S S S K L ..{ ` _ ` =.(.).).)._.).).)._._.).C.&...S x x x x x x x x x x x x x x x x x x x x x ",
"A A A A A S S S S S S S S S S S S S S S S S S K L ..X.X.B.).)._.).'.'.).(.N.q.Y x x x x x x x x x x x x x x x x x x x x x x x x ",
"C C A S S S S S S S S S S S S S S S S S S S S S S S S S Y Y Y Y Y Y Y Y K A A C x x x x z x x x x x x x x x x x x x x x x x V V ",
"S S S S S S S S S S S S S S S S S S S S S S S S S S S S S S S S S S S S S K K K K S A C x x x x x x x x x x x x x V V V V V V V ",
"S S S S S S S S S S S S S S S S S S S S S S S S S S S S S S S S S S S S S S S S S K K K K S A C c x x x x x V V V V V V V V V V ",
"S S S S S S S S S S S S S S S S S S S S S S S S S S S S S S S S S S S S S S S S S S S S S K K K K K C C C V x x x x x x V V V V "
};
