/* XPM */
static char *_8d7d9a5378b4965f1aa902e931149c4atkuTkdlSQ9Rtz3x[] = {
/* columns rows colors chars-per-pixel */
"50 50 156 2 ",
"   c #0C8AC6",
".  c #158CC6",
"X  c #1C8DC7",
"o  c #1D8DC9",
"O  c #1E90C9",
"+  c #228EC7",
"@  c #2A8EC7",
"#  c #218EC9",
"$  c #298FC9",
"%  c #2190C7",
"&  c #2B91C7",
"*  c #2090C9",
"=  c #2E91C9",
"-  c #3792C5",
";  c #3493C9",
":  c #3B94CA",
">  c #3D99CC",
",  c #4496CA",
"<  c #449BCD",
"1  c #4B9CCD",
"2  c #549FCE",
"3  c #429FD2",
"4  c #4C9ED0",
"5  c #4CA0CD",
"6  c #53A1CE",
"7  c #5CA1CD",
"8  c #45A5D6",
"9  c #4AA4D5",
"0  c #47A8D7",
"q  c #4AA9D6",
"w  c #45A7D9",
"e  c #4AA7D9",
"r  c #46A8D9",
"t  c #4AA9D9",
"y  c #54A3D2",
"u  c #5BA6D2",
"i  c #50ABD7",
"p  c #5CACD4",
"a  c #53ACDA",
"s  c #5AADDB",
"d  c #5AB0D7",
"f  c #5CB1DC",
"g  c #64A6CF",
"h  c #65A8CE",
"j  c #65A7D1",
"k  c #63ABD5",
"l  c #6AACD3",
"z  c #65ADD8",
"x  c #6BAFDA",
"c  c #73AED4",
"v  c #6DB2D7",
"b  c #63B3DD",
"n  c #6BB5DD",
"m  c #6CBADE",
"M  c #73B1D6",
"N  c #72B5DC",
"B  c #74BADE",
"V  c #7ABBDD",
"C  c #5DB1E1",
"Z  c #64B3E0",
"A  c #6CB6E1",
"S  c #64B8E1",
"D  c #6BB9E1",
"F  c #72B7E0",
"G  c #74BCE1",
"H  c #7BBDE1",
"J  c #7EC0DE",
"K  c #77C8DF",
"L  c #5FC5E3",
"P  c #65C4E5",
"I  c #6BC6E5",
"U  c #6DC8E5",
"Y  c #66C5E8",
"T  c #6BC6E8",
"R  c #6FC8E8",
"E  c #72C6E4",
"W  c #7CC2E2",
"Q  c #73C9E6",
"!  c #7BCBE6",
"~  c #71C7E9",
"^  c #75CAE8",
"/  c #7CCCE8",
"(  c #80B4D5",
")  c #83BDDD",
"_  c #8CBCD9",
"`  c #82BEE1",
"'  c #84C0D7",
"]  c #86C1DF",
"[  c #8FC3DF",
"{  c #92C6DE",
"}  c #95C9DF",
"|  c #83C4E3",
" . c #8BC5E3",
".. c #84CBE5",
"X. c #84CEE6",
"o. c #89CBE5",
"O. c #89CEE6",
"+. c #8CCFE6",
"@. c #83CDE9",
"#. c #8ACEE9",
"$. c #8CCCE8",
"%. c #8ECFE9",
"&. c #92C7E2",
"*. c #96CBE2",
"=. c #93CAE6",
"-. c #94CAE5",
";. c #96CAE5",
":. c #96CDE5",
">. c #9ACDE4",
",. c #98CDE6",
"<. c #93CDE8",
"1. c #99CEE9",
"2. c #9DCDE8",
"3. c #85D1E6",
"4. c #8BD1E6",
"5. c #8CD2E7",
"6. c #8FD3E6",
"7. c #86D1E9",
"8. c #8ED1E9",
"9. c #8CD2E9",
"0. c #8FD2E9",
"q. c #90D2E7",
"w. c #94D2E7",
"e. c #9FD0E3",
"r. c #99D0E6",
"t. c #9DD4E6",
"y. c #9CD4E7",
"u. c #97D9E6",
"i. c #90D3E9",
"p. c #92D2E8",
"a. c #96D3E8",
"s. c #95D4E8",
"d. c #92D3ED",
"f. c #9BD6EA",
"g. c #9ED6EB",
"h. c #9AD7ED",
"j. c #9DD5EC",
"k. c #9CD9EA",
"l. c #9DD8ED",
"z. c #A0CEE4",
"x. c #A5CEE9",
"c. c #A0D1E4",
"v. c #A2D3E5",
"b. c #A9D3E6",
"n. c #ACD5E7",
"m. c #ABD8E2",
"M. c #ABD8E7",
"N. c #A1D6E9",
"B. c #A1D6EC",
"V. c #A3D9EB",
"C. c #A5D8E9",
"Z. c #A4D9EA",
"A. c #A9D9EA",
"S. c #ABDBEA",
"D. c #ACDBEA",
"F. c #B4DFEC",
/* pixels */
"8.P P P ! r r r a f r r r b = # o $ n r r r b b r r r B r r q a G r r r H Q P P P 8.P P P O.b r r r ",
"8.P P P ! w 8 0 a s 0 q q b @ . . $ n w 0 0 f s 0 w w G w 0 w s H 8 w r H Q P P P 8.P P P X.b w w w ",
"F.l.h.d.V.g.N.N.Z.,.n b N *. .) N B c.s.r.N.D.A.a.q.q.M.p.q.o.p.F.B.j.$.y.:.;.;. .e.;.;.2.b.g.a.$.$.",
"q.P P P ! P P P E b r t e b a e e r W P P P ! / P P P 6.P P P Q 8.P P P ! t r r e B e r e n ^ P P P ",
"8.P P P ! P P P Q b r r r n a r r t E P P P / / P P P 8.P P P Q p.P P P ! t r r w V r r r H ! P P P ",
"8.P P P ! P Y P T D r t r n a r r q ..P P I / / P P P #.P P P Q p.P P Y / a t r e H q r t ) ..P P P ",
"6.T R E +.! ! Q ! G t a a n a a a a 6.Q R T / ! T T I p.I I I ! p.T R T X.d a t t H a a a ] X.I T I ",
"_ k y > l < > > 1 W / 3.3.Z.8.X.X.8.k.O.@.@.X.| G A n r.7.7.4.k.*.A W H ;.+.K ! 8.' 1 4 j _ u.6.@.! ",
"j o o X 6 X % # ; I P P P @.I P P I 3.P P P Q f r r 0 W P P P Q  .r r r H ! P P P N o # X 2 ! P P P ",
"l # # X 2 X X # = m P P P X.I P P I 6.P P P ! b r r 0 W P P P !  .r r r W ! P I P N o # # l / P P P ",
"g # # O 6 # % # ; I P P P ! I P P I s.Y P Y ! n r r w H P P I ^ ] t t q ) Q P Y I V X + o c / P Y P ",
"h ; ; ; g ; : ; , W T Q Q 3.! Q Q ! h.E Q E X.N s s a | Q ^ ! 3. .a a a | / T T E _ - - : M ! T T T ",
"<.P P P X.I P P E #.P I I ..1 - - , ) a a a n ..P P P  .: : : 1 V e q a G T I I P X.P P P ! b t t t ",
"q.P P P 8.T P P ^ p.P I P ..: % + = V t e q n X.P P P &.$ % + > B q t r G T P P P 8.P P P Q b q t r ",
"p.P P P 3.I P P ^ 7.P P P ! ; # # = H r r r n / P P P &.o # + > H r r r G P P P P 3.P P P R f r r r ",
"+.P P P X.P P P ^ 7.P P P ! ; # # = H e r r n / P P P *.X # o > ` r r r H I P P P 4.P P P R b r r r ",
"Z.8.X.X.g.8.X.! #.s.! X.8.y.M y < y 2.| | |  .q.../ ! c.z y , l &.G B m =.3.! 7.8.y.7.X.@.7.W B G B ",
"H a i a N : = & , b a a p V s a a a q.R T R ! b a a r  .T T T ! O.I I I / ! T T P h.T T E ! ! I T I ",
"B r r r n $ # # : a r r t G a t r a o.P P P ! Z r r 0 W P I I ! 4.P P P @.Q P P P O.P P P ! ! P P P ",
"n r r r n + o # ; s r t r ` a r r a #.P P P ! b r r q W P P P ^ p.P P P X.U P P P 4.P P P ! ! P P P ",
"n r r r n X o # : f r r r | a r r a O.P P P ! b r r 0 W P P P ! p.P P P X.R P P P 6.P P P ! ! P P P ",
"&.| ` V { ) V ) ) ) N N N {  .|  .| D.h.s.g.V.&.H V H c.8.p.8.s.Z.o.O.$.g.V.g.s.8.m.&.$.:.e.Z.s.f.B.",
"D q q 8 G P P P R 9 . . . z P P P I 6.P P P ! f e e w W P P P E B 8 w 0 m I P P P N   o X 1 I P P I ",
"b r r r G P P P T < O # # z I P P I 8.P P P ^ f t r r | P P P Q H r r r H R P P P B o # # < E P P I ",
"n r r q G P P P I 3 * # # u I P P P 8.P P P ! b t r r | P P P ! H r r r V R P P P n o # X 1 Q P P P ",
"N w 0 w f P P P T 9 X X . 5 P P P P @.P P P E f w w w | P P P Q H 8 0 8 V I L L P N   . . : I P P L ",
"A.....#.N.f.p.8.h.&.n N H *.4.3.! 4.D.,.1.<.e.D.w.r.w.D.8.p.u.f.Z.<.p.O.e.,.{ [ | ,.| | | :.A.g.d.8.",
"h.P P P X.P P P Q G w 0 w m Y P P P o.0 w 0 n O.P P P p.P P P T 8.P P P W & X o . J P P P Q ! P P P ",
"s.P P P X.P P P R n r r r m T P P I o.q r r n X.P P P f.P P P Q a.P P P W @ O * . | P P P U ! P P P ",
"p.P P P X.P P P Q D r r r G T P P I | r r r n / P P P V.P P I ! s.P P P W $ # # X | P P P R ! P P P ",
"p.I I I 8.I I T Q m t t t B T I I T | t t t n ! I I I V.P I I ! a.I I I W & + $ # | I I I ! / I I I ",
"Z.6.6.8.y.s.p.p.h.*.B B B :.4.3.8.8.c.` =. .:.4.@.@.7.y.V &.x.c.z.H | | *.V `  .] _ j l l ( *. .,.=.",
"q.I P P X.P P P T W q q q H T P I P W t r 0 m E I Y P | r r q a H r q q V s t e e k X # + 7 b 0 r 0 ",
"8.P P P ! P P P T G r r r B T P P I | r r r b Q P I P o.0 r t a H r r r G s r r r z o # % 6 b r r r ",
"8.P P P ! P P P Q G 0 r r B I I P P o.r r r b Q P P P o.0 r t a V r r r B s r r r l o # % : f r r r ",
"s.Q Q R ! E T T ! V s a a H E T T Q | s s s m ! I I T o.a a a b ` a a s V f a a a N ; ; ; 1 b s s a ",
"l > > > y C s f b y : : : j f f f b  .s f s V +.R Q E s.Q ~ Q ! p.~ E ~ 6./ Q ~ Q a.T T T X.B a a a ",
"u # # X < r t r a > o # # u t r r a | r r r n #.P P P s.P P P E a.P P P 8.R I P P #.P P P / b q r r ",
"y # # X < r t r a < # # # z a r r a H r r r n X.P P P f.P P P ! s.P P P @.T P P P #.P P I ! b q r t ",
"< O o o y t e e s y O % # M a r q q B t t r b / P P P k.P P P R p.P P P X.R P P P 7.P I P ! b r t e ",
"k 9 9 y x A A A G v 9 1 9 ) G D S m $.D m b H 4./ / ! D./ @.@.6.s./ @.@.h.6.! @.X.s.Q Q ! p.D f n n ",
"H s a s W Q T T ! G a a a G ^ E T ~ 4.Q Q I ^ b a s a W T Q Q / a.T T I 8./ Q Q E 1.a a t V b t a a ",
"n r r r G I P P Q D t r r G I P P I 8.I P P E f t t r | P P P Q a.P P P @.R P P P $.r r q n b r t e ",
"A r r r G P P P ! A r r q G I P P I 8.P P P ! b e t r o.P P I ! a.P P P @.R P P P $.e r t n b r r r ",
"n r t r G P P P ! G r r r D T P P I p.P P P ! b r r r  .P P I Q a.P P P @.I P P P | 0 r q F b r r r ",
"{ N N V } 8.p.a.g.$.W  . .,.a.8.p.s.A.p.p.a.y.[ ) ` N ;...#...a.A.p.p.p.A.Z.N.N.r.n. . . .;. .) V V ",
"c + X . p P P I Q X.P I P 3.I P P I 4.P I I W , o X . N e r q t ..P P P ..q 0 t r ..P P P ! s e r q ",
"c # # X z P P P T / P P P 7.I P P I p.P P P E 1 + # o z r r r a ..P P P ..a r t w ..P P P ! f r r r ",
"c # # o v P P P T / P P P 8.I P P I f.P P P Q 1 o # o z r r r s $.P P P o.a r r w O.P P P ! b r r r ",
"l X o o V P P P T ! P P P X.I P P I p.P P P I , o o . z 0 r 0 a X.P P P ! a w w 8 ..P P P ! b w 0 0 "
};
