/* XPM */
static char *algo[] = {
/* columns rows colors chars-per-pixel */
"50 50 206 2 ",
"   c #010101",
".  c #080806",
"X  c #070709",
"o  c #07090C",
"O  c #0C0C0C",
"+  c #0E110C",
"@  c #12150F",
"#  c #0C0E11",
"$  c #0E1113",
"%  c #0E141B",
"&  c #131413",
"*  c #161815",
"=  c #181917",
"-  c #12161A",
";  c #151A1C",
":  c #1A1B1A",
">  c #1B211C",
",  c #1D2216",
"<  c #20211F",
"1  c #161C21",
"2  c #191E23",
"3  c #1B2124",
"4  c #1D242A",
"5  c #1E282D",
"6  c #1E2820",
"7  c #1F2830",
"8  c #232423",
"9  c #242D24",
"0  c #282927",
"q  c #212629",
"w  c #232B2C",
"e  c #2B2C2B",
"r  c #2C3626",
"t  c #253329",
"y  c #2D322C",
"u  c #2B372B",
"i  c #333925",
"p  c #30312F",
"a  c #333D2B",
"s  c #282F30",
"d  c #242F38",
"f  c #242C32",
"g  c #2B3232",
"h  c #2E3D32",
"j  c #2C353B",
"k  c #26333D",
"l  c #333532",
"z  c #343A35",
"x  c #393A37",
"c  c #343B3C",
"v  c #3B3C3A",
"b  c #323738",
"n  c #384532",
"m  c #344539",
"M  c #3D403D",
"N  c #3A4C3B",
"B  c #364837",
"V  c #3E482D",
"C  c #40423F",
"Z  c #40493A",
"A  c #43533D",
"S  c #49583D",
"D  c #465237",
"F  c #505E3F",
"G  c #2C3A43",
"H  c #2A3741",
"J  c #323D41",
"K  c #364143",
"L  c #394343",
"P  c #3D4D41",
"I  c #39464B",
"U  c #38464C",
"Y  c #3C5243",
"T  c #3D4C53",
"R  c #434542",
"E  c #474945",
"W  c #484A46",
"Q  c #4C4E4A",
"!  c #434F4F",
"~  c #415542",
"^  c #465A43",
"/  c #4A5D43",
"(  c #45544C",
")  c #4F504D",
"_  c #51534E",
"`  c #424F53",
"'  c #475557",
"]  c #525550",
"[  c #565954",
"{  c #595C56",
"}  c #5C5F5A",
"|  c #4B6246",
" . c #4D644A",
".. c #526444",
"X. c #52664A",
"o. c #546A4B",
"O. c #596B49",
"+. c #5E625B",
"@. c #576A53",
"#. c #5C7352",
"$. c #5F744B",
"%. c #62724A",
"&. c #62645E",
"*. c #6A7F52",
"=. c #647950",
"-. c #4C5C62",
";. c #515F60",
":. c #4F636F",
">. c #526160",
",. c #636660",
"<. c #666963",
"1. c #696C66",
"2. c #6B6E68",
"3. c #6E726A",
"4. c #72756D",
"5. c #767A6B",
"6. c #767A73",
"7. c #7A7D76",
"8. c #7B7F78",
"9. c #737770",
"0. c #6D8253",
"q. c #708454",
"w. c #7E827A",
"e. c #7E8277",
"r. c #81857D",
"t. c #83887D",
"y. c #94987A",
"u. c #8E9C77",
"i. c #9DA57D",
"p. c #6C8387",
"a. c #868B82",
"s. c #8A8E85",
"d. c #8D9289",
"f. c #8D9785",
"g. c #979C89",
"h. c #959C92",
"j. c #999E94",
"k. c #9CA38D",
"l. c #9BA982",
"z. c #9DA298",
"x. c #A4A989",
"c. c #B0B38E",
"v. c #A7AB92",
"b. c #A3A99E",
"n. c #A5AA98",
"m. c #ABB299",
"M. c #B5B995",
"N. c #B5BA9A",
"B. c #B8BD9E",
"V. c #A6ABA1",
"C. c #A8AEA3",
"Z. c #AEB4A4",
"A. c #AEB5A9",
"S. c #B0B6A5",
"D. c #B4B9A2",
"F. c #B3B9AC",
"G. c #B3B9A7",
"H. c #B7BEB1",
"J. c #BDC19C",
"K. c #BBC1A5",
"L. c #BCC2AC",
"P. c #BBC2B4",
"I. c #BCC4B8",
"U. c #C3C89D",
"Y. c #C6CBA2",
"T. c #C9CEA4",
"R. c #C1C8AB",
"E. c #CDD2A6",
"W. c #CDD3AD",
"Q. c #D1D5AB",
"!. c #D3D9AE",
"~. c #D9DEAF",
"^. c #C3CABC",
"/. c #C2C8B7",
"(. c #CDD4B8",
"). c #D0D6B4",
"_. c #D4DAB2",
"`. c #D0D7BB",
"'. c #D6DCBD",
"]. c #D9DFB8",
"[. c #DAE0BE",
"{. c #CBD3C4",
"}. c #D6DCC2",
"|. c #D8DFC5",
" X c #D5DCCE",
".X c #D1D5CA",
"XX c #D7DFD0",
"oX c #DBE1C5",
"OX c #DCE4CB",
"+X c #DCE4D4",
"@X c #DFE8D6",
"#X c #EFF6CF",
"$X c #E2EAD5",
"%X c #E4ECDC",
"&X c #E0E7D4",
"*X c #E9F1DE",
"=X c #E8F0D9",
"-X c #F3F9DC",
";X c #E1E9CE",
":X c #E6EFE1",
">X c #EAF3E2",
",X c #EFF8E8",
"<X c #F2FBE5",
"1X c #F3FCEA",
"2X c #FDFFF3",
"3X c #FFFFF9",
/* pixels */
"X ) ] ] ] ] ] ] ] ] ] ] ] ] ] ] ] ] ] ] ] ] ] ] ] ] ] ] ] ] ] ] ] ] ] ] ] ] ] ] ] ] ] ] ] ] _ [ Q   ",
"= &.= : : : : : : : : : : : : : : : 2 : : : : : : : : : : : 3 : : > : : > : : : : : : : < : : = <.O ",
"= Q                                                                                 X           _ O ",
"= Q   X                 X                       X         . . @ $ , +     X                     ] O ",
"= )                                                 . r S ....^ N X.^ B @               X       [ O ",
"= _                                               . F *.=./ | | Y ^ N m A @                     ] @ ",
"= _                                             i %.o.O.~ N / / N  .S N Y | *       . v e.<.A.t.r.X ",
"= Q                                           @ q.X.0...O.O.X.u > t N Y Y Y u .   z Z.>X<X1X;X<XN.  ",
": )                                           i q.....w 3 * > 4 ;   3   * m o.r R 1X,X%XoX}.T.E.x.  ",
"= )   X                                       D 0./ 1 # -   % 5 5 % 1 , u N N t @ {.OXJ.W.T.Y.!.v.  ",
"= )                                           a o.z 4 H w 4 7 g 3 - h #.@.Y n n . & y e._.U.E.$Xm.  ",
"= )                                           N o.K w J q g K & ; s $ @ > N m Y i.y.x.T.(.oX%X=Xn.  ",
"= _                                           M ! g L ( z % U s q J q   9 > @   y.#X'.|.:X+XOX[.v.  ",
"= Q                                         = O.U !  . .h $ s g ; K M S | m n t / l.(.}.).).Y.E.v.  ",
": )   X                       X         X V @.P c L T ( ! ' ;.b + c h ^ h   9 B > B i.E.W.(.W.!.v.  ",
"= )                                   * O.=.@.o.$.E ' s I T K -.& z 0.o.A + r | n F l.OX'.'.oX=XZ.  ",
"= )                         * V.4.) } D %.g g 9 w 3 ; $ 8 q $ - O & S m h N / 6 u N | u.E.U.U.[.D.  ",
"= _                     e C H.1X*X>X-Xf.J ' c w T w ` c w >.e ` ` q L g I T ( g 1 g Y Y v.].`.*XS.  ",
"= _               e x d.1X1X>X*X&X_.Q.k.:.p.' J -.$ ' L 3 ' ; K J q ` 8 j T G j d I G z.R.W.oXOXS.  ",
"= Q           v j.P.R.(./.L.N.K.M.c.J.3.Y o.c = 3 + j 1 = b & ; g X 8 ; - w 2 - 1 3   h._.U.Y.E.v.  ",
": )           = :         X           O   t L X ; = 9 r > e ; I -.2 U I H T k j G j 5 J._.E.T.~.m.  ",
"= )   X                       & 9.b.8   : : X . 3 : : m 9 # O % w . % q % j H G 1 #   &.l.x.U.x.g.X ",
"= )                     X   ,.1X=X-XXX[ S.(.e   X # X   o # X X           # X o X c } ;   . =   ] O ",
"= )                         [ ^.v.i.D./.v.N.R.6.= 0 s.4.s & O O % # $ X $ o x V.F.@X,X:X1.      [ O ",
"= _                                       * p { +.F.-Xg.3.) 3 1 2 - - % - 2 P.2X>X$X+X,XP.  X   ] + ",
"= Q   X     & .                           X = e M _ [ q % 3 3 3 1 2 2 % <.@X@X%X}.Y.W.%X>X4.< [ 7.. ",
": )       r.r.e <.+                                 X - 4 3 7 d 5 3 -   b.1X}.&XY.Y.W.@X*X X X2XH.  ",
"= )     ] P.1.} v X 8 x = v & p _ 0 O   l x &         & # - % $ - $ X   = OX%X@X).W.T.T.Y.oX).Q.m.X ",
"= )     w.d.1.) =   1.&.1.7.l p 6.E e   r.C             X 1 %   O X . e &.$X%X@XW.T.Y.Y.).}.Y.Q.x.  ",
"= )     8 ^.1.e Q O _ ) v ] [ = R p } 0 <.Q #           o   8 z.Z < .X1X1X>XOX;X).E.'.OXoXQ.T.~.l.  ",
"= _       8 4.6.e   X   X O   : x < X .   & .           8 a.k.'.D.S.`.K.B.K.M.M.N.M.M.K.M.M.M.U.g.  ",
"= Q                 e } l   <.9.j.%XZ.l > [             O = @   . O   . . . O . . . . . X X X   [ + ",
"= )   X       X X   & 8 + } C     <.]   4.a.  X                                                 ] # ",
"= )             e C l _ 8 <./.h.b.h.] 8 [ 6.O =     X .                                         ] # ",
"= Q             O < 0 v e X <.w.w.j.+X.X3.V.d.l V.<.6.l                                         ] + ",
"= _                               E = z.r.j.V.: 1.z.G.l                                         ] + ",
"= ]                         .   C +X8 Q 6.+.b.v R d.V.l                                         ] # ",
"= )                           X & E = 4.&.1.s.R 6.z.A.]                                         ] + ",
"= )                       x z. XC.3.6.: . e z.&.1.s.,.s.  X                                     ] + ",
": Q   X                 W 6.[ A.3X.X8       8 _ f.P.8.:                                         ] + ",
"= )                     v 8     1.v           =   = 0                                           ] O ",
"= _                         X                                                                   ] @ ",
"= _                                   X           X                       X           X     X   ] O ",
"= Q                                                                                             ] O ",
": )                                 O 1.l Q l     0 E R l   l e e . = 8 } &.+.+.+.+.+.+.+.&.+.+.6.X ",
"= )   X X +     X X . + X           : F.&.d.[   = b.& O X } &.  v <.[ ] : 8 8 8 8 8 8 8 8 8 8 8 =   ",
"= Q     : 2.& p R R C Q e         ) e h.{ w.]   l F.  .   j.]   p V.. O                             ",
"= ]     O C . 8 < < 8 & &       C W = F.+.s.[   : C.O = 8.8.+.  x s.8 e e l e x 8 : x x C z e       ",
"O 1.] [ ] _ _ _ _ _ _ _ _ { ) W v     6._ 1.[ 0 8 C 4.1.l O Q 8 C = v v l l = < x R v v C W x       ",
"    X X X X X .   X X X X X         X       X .               . X       X                           "
};
