/* XPM */
static char *ba7bd501e0824e72fcac607cf1f13e22qrJrHNwXPjISf6sA[] = {
/* columns rows colors chars-per-pixel */
"50 50 234 2 ",
"   c #E9376E",
".  c #E93971",
"X  c #EC3B73",
"o  c #F13E77",
"O  c #E54775",
"+  c #EC4275",
"@  c #F3437B",
"#  c #F64B7F",
"$  c #E8547D",
"%  c #F6587E",
"&  c #EF6E7E",
"*  c #F36B74",
"=  c #F3647D",
"-  c #F26C7E",
";  c #ED7378",
":  c #EE7D7C",
">  c #F2747E",
",  c #F17C7E",
"<  c #DF9F65",
"1  c #CA8A7A",
"2  c #E69B6B",
"3  c #EA9B6A",
"4  c #EB8879",
"5  c #EC8B7B",
"6  c #F2837B",
"7  c #E69976",
"8  c #EA9379",
"9  c #DBA36A",
"0  c #DEA877",
"q  c #DEB179",
"w  c #E4A764",
"e  c #E3A36B",
"r  c #E3AA6D",
"t  c #E6A573",
"y  c #E4AB74",
"u  c #E7A878",
"i  c #E6B179",
"p  c #D85E8A",
"a  c #EF4E80",
"s  c #F54D83",
"d  c #F94D83",
"f  c #F94884",
"g  c #EB5984",
"h  c #F55384",
"j  c #F95484",
"k  c #F55A83",
"l  c #F4548A",
"z  c #FA5689",
"x  c #F55B8A",
"c  c #FB5B8D",
"v  c #ED5C92",
"b  c #F95C93",
"n  c #FC5E92",
"m  c #D77985",
"M  c #DA6E9A",
"N  c #CE7B9A",
"B  c #D2779D",
"V  c #EA6284",
"C  c #E86A87",
"Z  c #F46382",
"A  c #FA638E",
"S  c #F56989",
"D  c #EB758A",
"F  c #F27484",
"G  c #EA6596",
"H  c #F66493",
"J  c #FC6393",
"K  c #F36C93",
"L  c #FB6A96",
"P  c #FA659B",
"I  c #F56B9A",
"U  c #FC6C9A",
"Y  c #ED7493",
"T  c #EC779A",
"R  c #F7759C",
"E  c #FC739D",
"W  c #F7789A",
"Q  c #FB7A9E",
"!  c #D37CA7",
"~  c #F769A1",
"^  c #EA7AA6",
"/  c #FC76A2",
"(  c #F57CA3",
")  c #F578A6",
"_  c #FB7AA3",
"`  c #5C86C6",
"'  c #5D89C7",
"]  c #5C86C8",
"[  c #5E8BC9",
"{  c #638FC6",
"}  c #618CCA",
"|  c #6592CD",
" . c #6A96CD",
".. c #6C99CE",
"X. c #729BCE",
"o. c #6696D1",
"O. c #6996D1",
"+. c #6799D2",
"@. c #6A9AD3",
"#. c #729ED2",
"$. c #709FD8",
"%. c #6FA1D7",
"&. c #73A2D4",
"*. c #79A5D5",
"=. c #7CAAD6",
"-. c #73A5DB",
";. c #76AADE",
":. c #7BADDD",
">. c #7EB0DE",
",. c #77ABE0",
"<. c #79ADE1",
"1. c #7DB3E5",
"2. c #7FB6E8",
"3. c #BC9B89",
"4. c #BDA489",
"5. c #BA95B9",
"6. c #CB8782",
"7. c #D6878B",
"8. c #C6998A",
"9. c #DC8F9B",
"0. c #CC9A90",
"q. c #D69494",
"w. c #ED8C83",
"e. c #E28789",
"r. c #E99785",
"t. c #F3908D",
"y. c #EA879B",
"u. c #F88797",
"i. c #F79A97",
"p. c #DEB580",
"a. c #E9A984",
"s. c #E6B586",
"d. c #EAB98D",
"f. c #EAAB97",
"g. c #FAA69C",
"h. c #E9BC97",
"j. c #F9B797",
"k. c #CB88AC",
"l. c #C88CB1",
"z. c #D789B2",
"x. c #E988A9",
"c. c #F585A5",
"v. c #FB82A5",
"b. c #F487AA",
"n. c #FA84AB",
"m. c #FA8CAD",
"M. c #EA97A9",
"N. c #F797A7",
"B. c #F388B3",
"V. c #ED9EB3",
"C. c #F595B3",
"Z. c #F79BB7",
"A. c #E9A7B8",
"S. c #F4A6BC",
"D. c #F4B7B2",
"F. c #ECC39D",
"G. c #EBC6A7",
"H. c #ECCCB2",
"J. c #F3CBB6",
"K. c #EDD2B7",
"L. c #AF9CC0",
"P. c #BA9EC1",
"I. c #81AED9",
"U. c #83B3DC",
"Y. c #88B7DF",
"T. c #88B9DE",
"R. c #9BB4D9",
"E. c #ACBDDB",
"W. c #81B6E6",
"Q. c #83B9E6",
"!. c #8BBBE2",
"~. c #80B6E8",
"^. c #86BCE9",
"/. c #8ABFE9",
"(. c #93BEE2",
"). c #FAA7C1",
"_. c #FAABC4",
"`. c #ECB5C5",
"'. c #EDBECA",
"]. c #FAB6CB",
"[. c #8EC1E5",
"{. c #8CC2EA",
"}. c #92C4E4",
"|. c #95C9E7",
" X c #9ACAE7",
".X c #93C5EA",
"XX c #95CAEC",
"oX c #99CCEB",
"OX c #9DD2ED",
"+X c #9DD3F0",
"@X c #A7CCEA",
"#X c #B2CEE8",
"$X c #A1D5EE",
"%X c #ABD3ED",
"&X c #A4D8EF",
"*X c #B5D6EE",
"=X c #A2D6F1",
"-X c #AFD7F1",
";X c #A5DBF3",
":X c #AADDF4",
">X c #B4DDF3",
",X c #BBDDF2",
"<X c #A7E0F4",
"1X c #AAE1F5",
"2X c #B3E1F4",
"3X c #BBE3F5",
"4X c #C4C5DE",
"5X c #EEDAC3",
"6X c #F3D8C7",
"7X c #EFC9D3",
"8X c #F6C6D5",
"9X c #F2D1DA",
"0X c #EBE0CF",
"qX c #F3E0CE",
"wX c #F4E4D4",
"eX c #F6E6DB",
"rX c #F7E8DA",
"tX c #F5EADC",
"yX c #C2D7EC",
"uX c #D3DEEF",
"iX c #C8DDF1",
"pX c #D3DDF1",
"aX c #F4DAE1",
"sX c #D7E7EE",
"dX c #C2E4F5",
"fX c #CBE5F6",
"gX c #CCE7F7",
"hX c #D8E7F6",
"jX c #E7E7E8",
"kX c #F4E9E7",
"lX c #F9EDE3",
"zX c #F7F2E6",
"xX c #E4EBF6",
"cX c #E1EAF9",
/* pixels */
"` ` ] <.| ` ` ` ` *..X[ ;.2.1.1.1.1.1.1.1.1.2.@.:X[.` ` ` O.;.[ ` ` ] } oX#.| 2.2.1.1.1.1.1.1.1.2.;.",
"` ` -.~.[ ` ` ` ` } .X(.{ <.W.~.~.2.1.1.1.%.[ ` &.}.` ` [ 2.;.[ ` ` ` ] ;.OXX.o.2.~.~.2.1.1.1.2.} ' ",
"` } ;.2.1.| [ ` ` | .XhXE. .2.W.1.| ` lX5XG.d.y w w r p.h.H.qXjX| ] ] ] -.-XsX@.-.~.~.;.` ` ` ;.<.} ",
"@.;.2.;.;.2.;.@.@.&.%XfX%X.X{.1.kXH.r e u 8 5 : , : F , 8 7 2 w d.6XjX@.W.fXiXoX.X^.;.` ` ` ` ' ,.;.",
"~.~.;.[ [ &.-.-.1.XX;X{.2.XXlXG.r t f.F h s j z c c l m V d h - 8 y y K.=XOXW.^.oXXX!.:.` ` ` ` } W.",
"~.;.} ` ` ] ] ] :.=X:.;.2.K.r u , j M.x.J H J I J H J J J J c z j w.w.3 a.eX2.2.~.U.=X;XU.' ' ' }.-X",
"<.| ` ` ` ] ` Y.+X^.` zXd.r 5 % z J v.b.J J I l.^ U U L L J J J J c k j 5 e K.2.;.[ *.:X>X#XoXoX1XdX",
";.` ` ` ` ` U.;X.X| rXq u - z c J J L U / _ Q ( x./ _ / / / E L J J P c h F 7 h.-.` ] *.3XcX3X{.^.{.",
":X:X:X;X;X;X:XgX.XwXy 7 Z S J I U E / / _ _ _ _ _ / _ _ ( / / ( ( Y K K b l % 7 d.@.` ` I.:X.X2.[ [ ",
"3XcXxX3XhX<XdXhXtXu 8 k b 5.L.5.^ _ _ / c.( _ ( _ ( / ( S.v./ / y.4.4.7.A H T y.8 h.@.| Y.XX1.} ` ` ",
"OXdXcX3X X X XsXs.7 k c J J E _ _ ( m.M.9.L ~ l.l.z.J J E R E / _ Q _ / U J c.l % 7 H.@X;X{.@.` ` ` ",
"#.=XdX=X' ` ` h.u % c J J / / / m.).b.D A J c z j j c c c J J L E ^ B./ Q U J J j = 2 qX-X2.@.` ` ` ",
";.XXOX^.-.-.6Xy ; c J J E / _ S._.U J b l j s f s m s d d d z n J ^ l.x._ / U J G M F y yX2.@.` ` ` ",
"+XoX^.~.~.@Xq 7 C J J E / _ _.D.i.A c f h s s h s 6.# d s s j h c J P Q ( _ _ U l.G h 8 H.2.@.` ` ` ",
"=X^.W.~.~.K.0 6.7.J U / _ _.S.J S k l N h d d d # 1 V s s % t.j d c A U g.u._ / H J l Z e jX1.} ` ` ",
"oX[ [ [ [ i w.z J J R v.Z._.J c l s G v h @ X . $ g O   X s k s d x j.j.i._ _ _ R J n d 8 K.W.1.1.-.",
"yX} ] ` qXt Z c J U _ `.9XU n j d d f s X T 7X,X:XdXcXaXA.O X s d s k c J E / / / J J j & u 1.1.~..X",
"1X.X| ` F.8 j J J E n.'.m.J z s d d @ + '.@.^.fX=X,X3X1X*.kXy.. # d s j J J / / / U J c j 7 eX` <.%X",
"oX1X}.} i , c J L / _ Z.L J h s z T $ 7X` ` oX|.W.^.}.&X;X*.` M.X K x s n I ) _ _ / J J d 7 H.] @.$X",
" .oX1XtXr = n J E / n.n.J c h f s + A.` ` *.$XO.;.-.` I.:X=XT.OXD x.x s z T 5.P.P.z.L J j r.d.` (.|.",
"` #.OX6X3 h c J E ( v.E T ! d s # $ 4X` #.$X}.} | <.o.` U.;XXXXX9X+ s d d J K W _ Q U J z S r !.&X*.",
"` ` }./.G.* ; = / 0.y.U J ! l s + A.oXoX*X#X| ` | ~.@.` | =XW.W.W.C # F i.g.W E / / E 7.7.j e hX&.` ",
"` ` }.:XQ.eX| 5X* ( 9.J J s h d . 7X;X2XgX:X=X .1.~.@.` | :XXX2.@.A.@ j j A J E / / E A D h 3 lX$X!.",
"{ Y.:XhX-XW.-.[ 6 ) Q J n f s #   aXW.Q.^.XX:X:XQ.Q.&.{ =X3XgXXX2.'.o d s x J U / _ ( J H s 3 tX:X:X",
"1X1XiXuXiX=X/./.f.- E J c h f l X aX' <.<.:.<.;X:X;X1X:X2XuXpX3XXX'.X h s b J U b.A.n.J n h 2 tX<.[.",
";XOXU...&.=X$X=X:XJ.I J n d l B p 7X} } } } } &X>XOX1XOXOX@.@.[.$XA.o d C 3.D I ( _ E J n j 2 lX[ :.",
"U. .<.W.W.W.W.W.XX6XS L J h d d X A.` ` ` ` ` &XfX:XOX..-.W.~.W.W.y.@ d V K J E _ Q / J c h e zX` =.",
"` ` O.1.2.@.@.@.zXr.E U J j d d @ g ` ` ` o.-..X1XOX#.` ' -.W.;.kX+ # d h J J / ( x.x.k.! k r ` $.>.",
"` ` ` ,.@.` ] ] 6XH Q E J c d d f   `.;.;.<.2.&.1X}.` ` `  .:.} V.+ d d z J J _ _ x.z.^ x F s.-.W.:.",
"` ` @.1.' ` ] ] tX- _ / L b.V.h d @ O aXW.-. .' U.}.` ` [ <.-.7X. a d d J J U _ _ _ J J h 6 F.2. .} ",
"` ` ;.~.:.] lXtXf.L u./ E c.H s s d o $ aX1. .` &.}.` ` } 2.7XO # d d c J C.m._ ( n.J x C 2 5X<.,.` ",
"} %.~.1.1.zX6 = k ( g.Q / J b h s d s o O V.kX} *.oX$.} kXx.. @ d s j J J A.C./ Z.( K 8.1 t R.' 1.-.",
"2.2.1.} } G.: c J L i.v./ E J n j d h v M p X Y M.V.M.C . X F S d j J J J C.( _ _.H 7.V 5 F.` ` } :.",
"W.1. .` ` 5Xt k J J U / _ / U J J c G 5.k.v s # @ @ o $ s Z i.j l H P J E / / ).m.J x x 3 tX` ` I.$X",
"1.o.` ` ` ` s., x n J / _ y.( U J J c h # s d d d d a 6.k k j n J I 5.^ _ _ m.].P J d 4 h.(.Y.T.:XdX",
":.] ` ] ] ] 6Xt % b J D 8.0.Q _ E L E J c z h d h d h V x c J J J J ) x./ n.8XQ A u.w.t lXhX3XXXXXoX",
"OXoXoXoX X X$XG.5 j H Y Y _ _ ( ( ( A.b J J J J n t.u.n J J J J U / ( _ ( 8Xm.J c % t H.(.3X$XQ.+.o.",
"3XhXhX2XhX<XdXxXF.a.z J J L / _ / _ S.E U J J J u.j.L J J J U Q j.j.g.N.8Xm.J c h 5 s.] =.oXQ.@.] ] ",
":XfXxX3X:X;X:X:XrXu > z J L J E / / _ _ / / E R E K E E _ c._ _ c.N.D.8Xn.J H l 4 y zX!.:XXX@.` ` ` ",
"&.;XfX>X} ] ` !.:XwXi > H c.J J U E _ / _ Q / E _ / / / v.( _ ( ( _._.U J C.Y 6 y tXW.hX&X2.@.` ` ` ",
"@.XX=X^.@.o.O.:.OXoXeXy 6 j b J J J i.j.j.g.Q _ _ _ Q / / / _ m.Z.( J J x k 5 0 tX*.}.@X*X2.@.` ` ` ",
"XXXX{.~.2.W.W.~.W.` ` kXs.8 % c n J J L L ~ U y.q.q.3.T U L L L J H c j = 7 s.zXgXoX .[ ;.2.@.` ` ` ",
"=X{.2.~.W.W.W.~.~.' ` &.yXG.7 : j c b J J A J Y 7.e.S J J J J H l.l.k.w.e G.!.gX%X..` ] O.2.;.} ` ` ",
"OX@.@.@.@.@.;.~.~.-.` ` |.Y.qXs.3 e.B v k n c A J J J J n c z h = r.0 d.tX` | OX#.` ` } <.2.2.,.;.@.",
"yX` ` ` ` ` } ;.~.2.,.!.;X..` ` 0Xd.w 7 6 - % j % C d k = > 5 7 9 F.wX~.1.:.OXoX` ` ` <.2.2.2.2.2.{.",
":X!.' ` ` ` ` [ [ W.Q.oX1XX.[ O.1.W.lXK.d.e < < 9 9 2 9 e i G.5XE.` } &.2.W.:X X[ [ ;.2.;.[ [ [ 2.@X",
"=X1XT.} [ ...... ./.1XfXcX2X;XW.1.o.` ] ] ] zXeXwXwXrXlXsX| ` |  . . .;.+X:XcXgX:XXX1.;.] ] ` ` @.;X",
"X.=X:XU.:.:X;X$X=XOXOX,X-X:X1XXX .` ` ] ]  .OX .:.-.` !.:X$X&.|.1X=X+X+XOX+XiX&X1X<XU.' ` ` ` ` I..X",
"` *.$XOXOXOX{.2.;.&.O.W.:.[.1X3XoX .` `  .oXoX| | ;.| ` }.:XOXOXOXW.1.-.| <.2.>.OX3X1X=.` ` ` =.;XU.",
"` ` }.{.~.~.2.;.[ ` O.<.| U.>XdX1X|.T.T.@X%X..` | 2.@.` | =XW.W.W.2.@.` ` <.%...oXdX2X;X!.!.!.,XY.] "
};
