/* XPM */
static char *_ba6e1901d8b43cbea0cbcee437619ffzkPQmTGNqWXIEQxt[] = {
/* columns rows colors chars-per-pixel */
"50 50 231 2 ",
"   c #E9376E",
".  c #E93971",
"X  c #EC3B73",
"o  c #F13E77",
"O  c #E54775",
"+  c #EC4275",
"@  c #F3437B",
"#  c #F64B7F",
"$  c #E8547D",
"%  c #F6587E",
"&  c #EF6E7E",
"*  c #F36B74",
"=  c #F3647D",
"-  c #F26C7E",
";  c #ED7378",
":  c #EE7D7C",
">  c #F2747E",
",  c #F17C7E",
"<  c #DF9F65",
"1  c #CA8A7A",
"2  c #E69B6B",
"3  c #EA9B6A",
"4  c #EB8879",
"5  c #EC8B7B",
"6  c #F2837B",
"7  c #E69976",
"8  c #EA9379",
"9  c #DBA36A",
"0  c #DEA877",
"q  c #DEB179",
"w  c #E4A764",
"e  c #E3A36B",
"r  c #E3AA6D",
"t  c #E6A573",
"y  c #E4AB74",
"u  c #E7A878",
"i  c #E6B179",
"p  c #D85E8A",
"a  c #EF4E80",
"s  c #F54D83",
"d  c #F94D83",
"f  c #F94884",
"g  c #EB5984",
"h  c #F55384",
"j  c #F95484",
"k  c #F55A83",
"l  c #F4548A",
"z  c #FA5689",
"x  c #F55B8A",
"c  c #FB5B8D",
"v  c #ED5C92",
"b  c #F95C93",
"n  c #FC5E92",
"m  c #D77985",
"M  c #DA6E9A",
"N  c #CE7B9A",
"B  c #D2779D",
"V  c #EA6284",
"C  c #E86A87",
"Z  c #F46382",
"A  c #FA638E",
"S  c #F56989",
"D  c #EB758A",
"F  c #F27484",
"G  c #EA6596",
"H  c #F66493",
"J  c #FC6393",
"K  c #F36C93",
"L  c #FB6A96",
"P  c #FA659B",
"I  c #F56B9A",
"U  c #FC6C9A",
"Y  c #ED7493",
"T  c #EC779A",
"R  c #F7759C",
"E  c #FC739D",
"W  c #F7789A",
"Q  c #FB7A9E",
"!  c #D37CA7",
"~  c #F769A1",
"^  c #EA7AA6",
"/  c #FC76A2",
"(  c #F57CA3",
")  c #F578A6",
"_  c #FB7AA3",
"`  c #5C86C6",
"'  c #5D89C7",
"]  c #5C86C8",
"[  c #5E8BC9",
"{  c #638FC6",
"}  c #618CCA",
"|  c #6592CD",
" . c #6996CD",
".. c #6C98CD",
"X. c #729BCE",
"o. c #6796D1",
"O. c #6996D2",
"+. c #6A9AD3",
"@. c #6B9CD5",
"#. c #729ED2",
"$. c #709FD8",
"%. c #6FA1D8",
"&. c #73A2D5",
"*. c #79A5D5",
"=. c #7CAAD6",
"-. c #73A5DB",
";. c #76A9DE",
":. c #7BADDD",
">. c #7EB0DE",
",. c #77ABE0",
"<. c #79ADE1",
"1. c #7DB3E5",
"2. c #7FB6E8",
"3. c #BC9B89",
"4. c #BDA489",
"5. c #BA95B9",
"6. c #CB8782",
"7. c #D6878B",
"8. c #C6998A",
"9. c #DC8F9B",
"0. c #D29692",
"q. c #ED8C83",
"w. c #E28789",
"e. c #E99785",
"r. c #F3908D",
"t. c #EA879B",
"y. c #F88797",
"u. c #F79A97",
"i. c #DEB580",
"p. c #E9A984",
"a. c #E6B586",
"s. c #EAB98D",
"d. c #EAAB97",
"f. c #FAA69C",
"g. c #E9BC97",
"h. c #F9B797",
"j. c #CB88AC",
"k. c #C88CB1",
"l. c #D789B2",
"z. c #E988A9",
"x. c #F585A5",
"c. c #FB82A5",
"v. c #F487AA",
"b. c #FA84AB",
"n. c #FA8CAD",
"m. c #EA97A9",
"M. c #F797A7",
"N. c #ED9EB3",
"B. c #F595B3",
"V. c #F79BB7",
"C. c #E9A7B8",
"Z. c #F4A6BC",
"A. c #F4B7B2",
"S. c #ECC39D",
"D. c #EBC6A7",
"F. c #ECCCB2",
"G. c #F3CBB6",
"H. c #EDD2B7",
"J. c #829CCF",
"K. c #AF9CC0",
"L. c #BA9EC1",
"P. c #81AED9",
"I. c #9DAED2",
"U. c #83B3DC",
"Y. c #88B8DE",
"T. c #9DB7DA",
"R. c #A5BDDE",
"E. c #81B6E6",
"W. c #84B9E6",
"Q. c #8ABBE2",
"!. c #80B6E8",
"~. c #86BCE9",
"^. c #8CBFE9",
"/. c #91BDE2",
"(. c #FAA7C1",
"). c #FAABC4",
"_. c #ECB5C5",
"`. c #EDBECA",
"'. c #FAB6CB",
"]. c #B6C3DB",
"[. c #8EC1E5",
"{. c #8CC2E9",
"}. c #92C3E4",
"|. c #98C6E5",
" X c #9ACAE7",
".X c #94C5E9",
"XX c #95CBEC",
"oX c #99CCEA",
"OX c #9DD2ED",
"+X c #9DD3F0",
"@X c #A7CBEA",
"#X c #B4CFE6",
"$X c #A1D4EE",
"%X c #ABD3ED",
"&X c #A4D8EF",
"*X c #B5D6EE",
"=X c #A2D6F1",
"-X c #AFD7F1",
";X c #A5DBF3",
":X c #AADDF4",
">X c #B4DDF3",
",X c #BBDDF1",
"<X c #A7E0F4",
"1X c #AAE1F5",
"2X c #B2E1F4",
"3X c #BBE2F5",
"4X c #C4C5DF",
"5X c #EEDAC3",
"6X c #F3D8C7",
"7X c #EFC9D3",
"8X c #F6C6D5",
"9X c #F2D1DA",
"0X c #EBE0CF",
"qX c #F3E0CE",
"wX c #F4E4D4",
"eX c #F6E6DB",
"rX c #F7E8DA",
"tX c #F5EADC",
"yX c #C6D6EA",
"uX c #CFD9EB",
"iX c #C8DCF1",
"pX c #F4DAE1",
"aX c #C1E4F5",
"sX c #CBE5F6",
"dX c #CEE8F7",
"fX c #D7E7F7",
"gX c #E6E6E6",
"hX c #F4E9E7",
"jX c #F9EDE3",
"kX c #F8F2E6",
"lX c #E3EBF8",
/* pixels */
"` ` ] <.| ` ` ` ` *..X[ ;.2.1.1.1.1.1.1.1.1.2.+.:X[.` ` ` O.;.[ ` ` ` }  X#.| 2.2.1.1.1.1.1.1.1.2.;.",
"` ` -.!.[ ` ` ` ` } .X/.{ <.E.!.!.2.1.1.1.%.[ ` &.}.` ` [ 2.;.[ ` ` ` ` ;.OXX.o.2.!.!.2.1.1.1.2.} ' ",
"` } ;.2.1.| [ ` ` | .XfXR. .2.E.1.| ` ` o.1.@.] &.}.[ ` o.2.!.%.| ' ] ] -.-XfX@.-.!.!.;.` ` ` ;.<.} ",
"+.;.2.;.;.2.;.+.+.&.%XsX%X.X{.1.O.` ] ` ` 4XjXwXwXwXeXhX2.1.;.1.!.+.+.+.E.sXiXoX.X~.;.` ` ` ` ' ,.;.",
"!.!.;.[ [ &.-.-.1.XX;X{.!.XXoX{.Y.].5XD.i e 9 2 9 9 < < e s.H.jX-.-.;.{.=XOXE.~.oXXXQ.:.` ` ` ` } E.",
"!.;.} ` ` ] ] ] :.=X:.;.2.2.E.wXg.9 7 5 > = k d C % j k - 6 7 w s.0X .XX.X&.2.2.!.U.=X;XU.' ' ' }.-X",
"<.| ` ` ` ] ` Y.+X~.` @.2.tXs.0 e.= j z c n J J J J H n n k l B w.3 a.wX&.] 2.2.;.[ *.:X>X#XoX X1XaX",
";.` ` ` ` ` U.;X.X| ` [ D.e q.j.k.k.H J H J J S w.7.Y J A J J n c j : 7 D.J.o.2.-.` ] *.3XlX3X{.~.{.",
":X:X:X;X;X;X:XdX.X' kXa.7 = j c H J L L L U T 3.0.9.t.U ~ H L J J n c % 8 a.hX!.2.+.' ' P.:X.X2.[ [ ",
"3XlXlX3XdX<XaXfX.XrX0 5 k x J J ( V.n._ _ _ / Q _ _ _ _ f.h.h.u.J J J n j 6 y rX!.!.+.| Y.XX1.} ` ` ",
"OXaXlX3X X X X&XrXy 6 Y B.H U ).)._ ( _ _ c._ / _ _ E / Q _ / _ E U J J x.H > u wX;.2.@X;X{.+.` ` ` ",
"#.=XaX=X' ` ` kXy 4 l H H b.8XA.M.c._ _ x._ E E K E R E / _ _ _ _ _ E H L H z > u rX~.dX-X2.+.` ` ` ",
";.XXOX~.-.-.-.a.5 j c H n.8XM.f.h.h.Q U J J J L h.y.H J J U E Z._ / _ / L J J z p.S.|./.@X2.+.` ` ` ",
"+XoX~.!.!.!.F.t % c H n.8X_ _ ( / U J J J J n y.r.n J J J J n C._ ( ( _ _ Y Y H j 5 D.[ -.2.+.` ` ` ",
"=X~.E.!.!.jXt q.y.A Q 8Xb._ z.) J J J J c x V h d h d j z c J E H E _ Q 0.8.Y J b % t 6XO.!.1.} ` ` ",
"oX[ [ [ [ g.4 d J P '.n._ _ ^ 5.I J n j j g 6.a d d d d s d j c J J U _ t._ / J J x , a.2.!.E.1.1.-.",
"yX} ] ` tX3 k x H n.(./ / E J P H l j u.Z s $ o @ @ @ s v j.5.G z J J U _ _ _ E J J j t 5X1.1.1.!..X",
"1X.X| ` S.5 V 7.H )._ _ B.H J J j d S S X . C m.N.m.Y X p M v h d j n J E _ c.u.L J c : D.` ` ` <.%X",
"oX1X}.I.t 1 8.K ( V./ B.C.J J j s d @ . z.hX X}.E.~.}.hXN.O o s d s h n H _ Q f.( k = 6 kX` ` ] +.$X",
"..oX1X5X3 C x H b.( _ n.B.J c d d @ O 7X` *.$XO.;.-.` P.:XpX$ o d d s H x.E _ y.L d.tXjX` ` ` ` /.}.",
"` #.OXS.6 j n J _ _ _ U H J d d a X 7X` #.$X}.} | <.o.` U.;XpXO @ d h N.v.U _ _ - tX2XQ.` ` ` Q.&X*.",
"` ` }.a.F x ^ l.z._ _ H J c d d + N. X X*X@X| ` | !.@.` | =XE._.  s d d c J E Q H 6X1X<X X X XsX*.` ",
"` ` }.e k ! j.z.z.( / J J j d # + hX;X2XdX:X=X .1.!.@.` | :XXX2.g @ d d j J U U e.jX~.~. X1XdX3X$XQ.",
"{ Y.kXe j c J / Q _ E H K V d @ t.;.E.W.~.XX:X:XW.W.&.{ =X3XdXXXC.X d d h J U S 6X+.' | 1.E.~.~.:X:X",
"1X1XjX2 j n J E _ _ I D 3.C d o C.` ' <.<.:.<.;X:X;X1X:X2XuXuX3X7Xp B l d n H K G.` ` ` ` +.<.<.<.[.",
";XOXrX3 h n J b.C.v.U H b s s X `.} } } } } } &X>XOX1XOXOX+.+.[.pXX l f h c H E - d.} } } } [ [ [ :.",
"U. .tX3 s H H ( _ _ U H x s d o `.` ` ` ` ` ` &XsX:XOX..-.E.!.E.pX  # s s n J Q ) 6 ` ` ` ` ` ` ` =.",
"` ` jX3 j C c E _ _ E J A j j @ C.` ` ` ` o.-..X1XOX#.` ' -.E.;.7XX d h s J J 9.) * 5X` tX` ` ` $.>.",
"` ` I.e j m 7.E _ _ E W f.u.F f C -.;.;.;.<.2.&.1X}.` ` `  .:.} C.+ s l ! J U t.0./ = ; * D.-.-.E.:.",
"` ` @.r S z J U Q _ W K J d d s + 9XE.E.E.-. .[ U.}.` ` [ <.-.4X$ @ s d ! T E c.( E J c h 3 6X2. .} ",
"` ` ;.s.e.j J L l.L.L.5.T z s x z.D } } @.1. .` &.}.` ` } 2.2.C.+ s f h c H b.b._ E J n = e tX<.,.` ",
"} %.!.F.7 d J J / _ _ ) I n s x K X m.` ` $.1.} *.oX$.} 1.2.7X$ T z s j J L V._ _ U J c , i ` ' 1.-.",
"2.2.1.rX7 j c H U _ _ _ J J j s d # X t.hX` ;.*.1XOX2.2.2.`.+ @ d d s z J n.`.b.E J J j 8 S.` ` } :.",
"E.1. .` u & j J J _ _ _ E H c j s d s X O C.pX,X3XXX.X7XT X s f d d j n U 9X_._ U J c Z t qX` ` P.$X",
"1.o.` ` H.8 d n H R _ _ _ u.h.h.x d s k s X   O g $ X X @ h v G s l c J ).V.c.E J H z q.i T.Y.Y.:XaX",
":.] ` ] gXe Z l J H / _ y.f.U A c d j r.% s s V 1 # d d d h N l j S H Z.)._ _ U H 7.6.0 H.fX3XXXXXoX",
"OX X X X XF.8 j G k.U _ _ ( Q P J c h j s s d # 6.s h s s h f c A u.A.)._ _ E J J C 7 q #X3X$XW.O.o.",
"3XfXfX2XdXaXy F M G J U _ _ z.k.^ J n z d d d d m s f s j l n H U ).Z._ _ E J J c ; y 6X=.oXW.+.] ] ",
":XsXlX3X:X;XqX2 = j J J U Q / z.^ E L J J c c c j j z c J A D v.(.n._ _ / J J c % u g.^.:XXX+.` ` ` ",
"&.;XsX>X} ] ` F.7 % l x.J U _ _ Q _ / E R E J H ! k.k.~ L 9.m.n._ _ _ E H J c k 7 a.uXfX%X2.+.` ` ` ",
"@.XX=X~.+.o.O.:.g.8 t.T H A 7.4.4.t._ _ c.Z._ / ( _ ( _ _ x._ _ / ^ 5.K.5.b k 8 u tX}.@X*X2.+.` ` ` ",
"XXXX{.!.2.E.E.!.E.s.7 % l n K K Y ( _ _ _ _ _ _ _ _ _ _ _ _ _ / E U I H S Z 7 y wX X .[ ;.2.+.` ` ` ",
"=X{.2.!.E.E.E.!.!.' g.7 F h c P J J U E _ _ _ _ _ z._ Q _ / U L J J c z - u q wX%X..` ] O.2.;.} ` ` ",
"OX+.+.+.+.+.;.!.!.-.` H.e 5 j j c J H J J L U U U ^ k.I J J v.c.J z % 5 r s.kXOX+.` ` } <.2.2.,.;.@.",
"yX` ` ` ` ` } ;.2.2.,.^.rXp.3 q.q.j z c J J J J H J I J H J z.m.j 6 u r H.:.OX X` ` ` <.2.2.2.2.2.{.",
":XQ.' ` ` ` ` [ [ E.W.oX1XX.H.y y 8 - h d V m l c c z j s h F d.t r D.jX2.E.:X X[ [ ;.2.;.[ [ [ 2.@X",
"=X1XY.} [ ...... .^.1XsXlX>X;XgX6Xs.w 2 7 8 , D : , : 4 8 t e r F.hX .;.+X:XlXdX:XXX1.;.] ] ` ` +.;X",
"X.=X:XU.:.:X;X$X=XOXOX,X-X:X1XoX .` gXqXF.g.i.r w w y s.D.5XjX X1X=X=X+XOX+XiX&X1X<XU.' ` ` ` ` P..X",
"` *.$XOXOXOX{.2.;.&.O.E.:.[.1X3X X .` `  . XoX| | ;.| ` }.:XOXOXOXE.1.-.| <.2.>.OX3X1X=.` ` ` =.;XU.",
"` ` }.{.!.!.2.;.[ ` O.<.| U.>XaX1X}.Y.Y.@X%X..` | 2.@.` | =XE.E.E.2.+.` ` <.%... XaX2X;XQ.Q.Q.,XY.] "
};
