/* XPM */
static char *_fe2f109f0b74342fd5f667b4decb13dm222A4ssct70NnrH[] = {
/* columns rows colors chars-per-pixel */
"50 50 74 1 ",
"  c #D8636F",
". c #D86370",
"X c #D86571",
"o c #D96873",
"O c #D96874",
"+ c #DA6C77",
"@ c #DA6D78",
"# c #DA707A",
"$ c #DB737D",
"% c #DB7780",
"& c #DC7680",
"* c #DC7A83",
"= c #DC7C85",
"- c #DD7F88",
"; c #DE838B",
": c #DE868E",
"> c #DF888F",
", c #DF8A92",
"< c #DF8C93",
"1 c #E08F96",
"2 c #E19399",
"3 c #E2979E",
"4 c #E2989E",
"5 c #E39AA0",
"6 c #E39CA2",
"7 c #E49DA3",
"8 c #E49FA5",
"9 c #E4A0A6",
"0 c #E5A3A9",
"q c #E4A5A9",
"w c #E6A6AC",
"e c #E6A8AD",
"r c #E7ABB0",
"t c #E6ACB1",
"y c #E8AEB2",
"u c #E9AFB4",
"i c #E8B1B6",
"p c #EAB3B8",
"a c #EAB7BB",
"s c #EAB7BC",
"d c #EBB8BD",
"f c #EBBCBF",
"g c #EBBDC0",
"h c #ECBFC3",
"j c #ECC0C3",
"k c #ECC1C4",
"l c #EEC4C7",
"z c #EEC6CA",
"x c #EEC8CB",
"c c #EFCBCD",
"v c #EFCCCE",
"b c #EFCFD1",
"n c #F1CFD2",
"m c #F1D1D3",
"M c #F1D2D5",
"N c #F2D4D6",
"B c #F2D7D9",
"V c #F3D8DA",
"C c #F4DADC",
"Z c #F4DCDE",
"A c #F5DEE0",
"S c #F7E2E3",
"D c #F6E3E4",
"F c #F7E5E7",
"G c #F7E7E8",
"H c #F8EAEB",
"J c #FAEEEF",
"K c #FBF3F3",
"L c #FBF3F4",
"P c #FCF6F6",
"I c #FDF7F8",
"U c #FDF9F9",
"Y c #FEFBFC",
"T c white",
/* pixels */
"t                                                 ",
"q                                                 ",
"q                                                 ",
"q                                                 ",
"q                                                 ",
"q                                                 ",
"q                                                 ",
"q                ,     ;@                         ",
"q                0w   *lX                         ",
"q                 i2 +z@  ##                      ",
"q                 Xk;k-   c,   O,q                ",
"q                  OS5    k    i<w                ",
"q                  0ikX  @Z,ee86,w                ",
"q                 1a ,d   k30;jf<w                ",
"q                =kX  9e  k66&hf<w                ",
"q                y+    e# iokhit:5                ",
"q                                                 ",
"q                                                 ",
"q                                                 ",
"q                                                 ",
"q                                                 ",
"q                                                 ",
"q                                                 ",
"q                                                 ",
"q                                                 ",
"q                                                 ",
"q            @23$      =;;;*                      ",
"q           :JTTP0    OUTTTA                      ",
"q          XHF1:nU=   4I322:                      ",
"q          4Y:  OJg   jS                          ",
"q          iH    Bm   Ak                          ",
"q          .X    Av  @PKHk+                       ",
"q               ;Uq  2JnCTZX                      ",
"q              XBHX  =O  qTw                      ",
"q              tT3        AN                      ",
"q             ;Pz         kF   OX                 ",
"q            oFDO         zF   wOhX5d@7a+         ",
"q            kP;    ;;   XGn  +q tXy#et*8         ",
"q           5TwXXXX VF% XsT2  8* tXt pqOe         ",
"q          %KYFFFFh >PLBFTh  Xr  tXu=0y;5         ",
"q          0bbbbbbt  ;xZM8   3;  2X,rO1eX         ",
"q                            5                    ",
"q                                                 ",
"q                                                 ",
"q                                                 ",
"q                                                 ",
"q                                                 ",
"q                                                 ",
"q                                                 ",
"q                                                 "
};
