/* XPM */
static char *smoltitle[] = {
/* columns rows colors chars-per-pixel */
"64 64 218 2 ",
"   c #010101",
".  c #080807",
"X  c #070608",
"o  c #07090B",
"O  c #0B0C0C",
"+  c #070807",
"@  c #0E110C",
"#  c #10110F",
"$  c #0D0F11",
"%  c #070C11",
"&  c #0F1215",
"*  c #0E131B",
"=  c #121212",
"-  c #171A15",
";  c #1A1C16",
":  c #11151A",
">  c #15191C",
",  c #1B1C1B",
"<  c #100F10",
"1  c #1E211E",
"2  c #1B2017",
"3  c #20211F",
"4  c #23291E",
"5  c #161C22",
"6  c #1A1E23",
"7  c #1C2225",
"8  c #1C242B",
"9  c #1F2827",
"0  c #1F2932",
"q  c #232423",
"w  c #242A26",
"e  c #292A26",
"r  c #212629",
"t  c #242A2C",
"y  c #2B2D2B",
"u  c #2E322C",
"i  c #2C392D",
"p  c #273328",
"a  c #31322E",
"s  c #333E2D",
"d  c #232C32",
"f  c #272F35",
"g  c #2C3334",
"h  c #29353B",
"j  c #333532",
"k  c #373836",
"l  c #393B37",
"z  c #333B3C",
"x  c #3C3E3B",
"c  c #323739",
"v  c #324234",
"b  c #3A4633",
"n  c #3C4A35",
"m  c #35443B",
"M  c #3D423D",
"N  c #394C3C",
"B  c #3D523E",
"V  c #3E462B",
"C  c #41433E",
"Z  c #404F37",
"A  c #42533D",
"S  c #4B5A3D",
"D  c #465136",
"F  c #525E3C",
"G  c #55643F",
"H  c #2D3A44",
"J  c #323C41",
"K  c #303E48",
"L  c #383F41",
"P  c #3A4243",
"I  c #3A454A",
"U  c #364546",
"Y  c #3D5343",
"T  c #3D4C54",
"R  c #344552",
"E  c #444643",
"W  c #464844",
"Q  c #494A47",
"!  c #4A4D49",
"~  c #435644",
"^  c #435A44",
"/  c #4A5D43",
"(  c #4E514C",
")  c #455E48",
"_  c #495649",
"`  c #51534E",
"'  c #404D52",
"]  c #475657",
"[  c #545652",
"{  c #565954",
"}  c #595B56",
"|  c #5B5E59",
" . c #515F5E",
".. c #4C6245",
"X. c #4B624A",
"o. c #52664B",
"O. c #546A4A",
"+. c #596D4A",
"@. c #546545",
"#. c #5F724C",
"$. c #5E615C",
"%. c #536257",
"&. c #536B53",
"*. c #62724A",
"=. c #677A4E",
"-. c #636653",
";. c #656A56",
":. c #61645E",
">. c #676A5A",
",. c #6A6D5E",
"<. c #696D57",
"1. c #677A52",
"2. c #4C5E63",
"3. c #515F64",
"4. c #4F6169",
"5. c #546469",
"6. c #546871",
"7. c #646661",
"8. c #666963",
"9. c #6A6D64",
"0. c #6B6D68",
"q. c #6E7269",
"w. c #6B7465",
"e. c #7B7D65",
"r. c #71756D",
"t. c #797C6A",
"y. c #757972",
"u. c #797D75",
"i. c #797C76",
"p. c #6D8254",
"a. c #768956",
"s. c #7C8166",
"d. c #7D8069",
"f. c #768963",
"g. c #7E827B",
"h. c #7D8275",
"j. c #81846D",
"k. c #81857D",
"l. c #868978",
"z. c #91957E",
"x. c #89976D",
"c. c #96A27A",
"v. c #607881",
"b. c #748B8E",
"n. c #868B82",
"m. c #898D85",
"M. c #838680",
"N. c #8C9185",
"B. c #8E928A",
"V. c #87928C",
"C. c #94998E",
"Z. c #94988A",
"A. c #959A91",
"S. c #999E94",
"D. c #9FA499",
"F. c #9BA095",
"G. c #A5AA9D",
"H. c #A4A99B",
"J. c #ABB29A",
"K. c #B6BC98",
"L. c #A6AB86",
"P. c #A6ACA1",
"I. c #ACB2A6",
"U. c #AFB4A8",
"Y. c #B3B9AA",
"T. c #B7BEB2",
"R. c #BCC39B",
"E. c #BDC3B6",
"W. c #BCC7AB",
"Q. c #C2C79C",
"!. c #C4C99E",
"~. c #C9CC9F",
"^. c #C6CBA2",
"/. c #C9CEA5",
"(. c #CACFA9",
"). c #CCD2AB",
"_. c #CAD0A5",
"`. c #D4D9AD",
"'. c #D1D6A9",
"]. c #C5CBBE",
"[. c #C5CBB9",
"{. c #CED5B3",
"}. c #C9D0BD",
"|. c #D0D6B4",
" X c #D5DBB2",
".X c #D9DEB4",
"XX c #D3DABC",
"oX c #D9DFB9",
"OX c #DDE2BB",
"+X c #DAE0B7",
"@X c #E3E9BC",
"#X c #C7CEC0",
"$X c #C9CEC1",
"%X c #CCD3C5",
"&X c #D6DDC3",
"*X c #D8DEC4",
"=X c #D4DBCB",
"-X c #D5DBC6",
";X c #DBE2C5",
":X c #DCE3CB",
">X c #DCE4D3",
",X c #DDE6D6",
"<X c #E4EBC9",
"1X c #E1EAD5",
"2X c #E3ECDC",
"3X c #E0E7D3",
"4X c #E9F1D6",
"5X c #E7F0DF",
"6X c #ECF5DC",
"7X c #ECF5E4",
"8X c #EFF8E6",
"9X c #E7F0E0",
"0X c #F3FBE4",
"qX c #F3FCEB",
"wX c #F5F8E7",
"eX c #FCFFF3",
"rX c #FFFFFB",
"tX c #E6EEE0",
/* pixels */
"  y ( ! ! ! ! ! ! ! ! ! ! ! ! ! ! ! ! ! ! ! ! ! ! ! ! ! ! ! ! ! ! ! ( ! ! ! ! ! ! ! ! ! ! ! ! ! ! ! ! ! ! ! ! ! ! ! ! ! ! ( q   ",
"  y.[ C E E E E E E E E E E E E E E E E E E E E E E E E E E E E E E E E E E E E E E E E E E E W E E E E E E E E E E E E M :.8.  ",
"  0.<                                                                                                                     1 :.  ",
"  0.=   X           X     X     X             X   X       X         X     X               X       X     X             X   q :.  ",
"  0.<                                                                           # O ; -                                   3 :.  ",
"  0.@                                                                 4 n D *.Z / N / / n p X                             3 :.  ",
"  0.@                                                             2 @.1.=.+.^ O...B ..) ^ ) A O               X           q :.  ",
"  0.=                                                           ; G O.=.O.^ X.....Y Y ^ i w ^ N 2                     ,   1 :.  ",
"  0.@                                                       O F a.+.@.@.N N b +.A N X.o./ S Y Y ~ .         # M S.F.n.2XU.J.9.  ",
"  0.<                                                       V a.A +.a./ =.#.*.) i - v p ) Y Y Y Y 3       C I.qX7X0XqX:X1X0X9.  ",
"  0.=                                                       S p.O.a.~ i w i i w > *   @ p @ 9 p N +.p   C.8X7X1X1X:X-X(./..X,.  ",
"  0.@                                                     . =.1.^ m 5 > 5     0 8 H   5 :   . i Y ^ A = }.0X3X8XXXoX|.(.!..X,.  ",
"  0.@                                                     , #.#.+.9 * & > $ 5 : 0 7 : * 3 b B ^ m Y p   C *X{.z.).^.^.^./.<X>.  ",
"  0.=                                                       @./ i 7 f K c 7 f f J t : 8 / #.X.o.i i b O   . = ` oX!././.-X6X>.  ",
"  0.O                                                     @ 1...] c t I : , c i o : y > = 1 p B ) N ..x.l.j.L./._.).&X1X1X<X9.  ",
"  0.=                                                     O ] ' y r J c c g R T = r m h o   O @ w & 1 f.OX X X_.>X2XtX2X:XOX9.  ",
"  0.<                                                     = w.h P ( ) %.z   % T 7 g 5 ] 2 2 B m 2 2   C '.;X:X:X5X:X|.XX).OX9.  ",
"  0.@                                                   # @.+.U T &.^ X.c r 7 L t & P P m +.X.Y v B N B +.c.{.XX).{.{./.!.+X9.  ",
"  0.@                                                 V 1. .g J z P _ / ] ]  . .t . y c i ~ v >   i v & v B L.~.^.{./.).!..X9.  ",
"  0.=                                             ; S 1.o.$.^ *._ ' ] t T ' T T 5.. g / #.o.S @   B S 4 v O.R.;X;X;X&X,X:X4Xw.  ",
"  0.@                           X     : k       O =.p.^ ] ~ / ^ p J h : P I d 9 I > + +.p.~ B ..p A B Y X.O.f.W. X(.).(.XX7Xq.  ",
"  0.<                               , %XqXh.D.E.,.S S 7 r 6 & 8 7 O - O , , , o = = + e s g g 9 ~ O.O - 2 m B +.R./.!.!.(.<Xq.  ",
"  0.=                         , C [ =X7X1X7X8X4X{. .c 5.I q U ] d T 5.g c 5.] t 6.5.7 x P f T 5.J ] z 5 f i Y Y w. X|.XX1X8Xw.  ",
"  0.@                   . X ! ].7X7XtX,X2X*X}.^.K.b.6.b.v.f 2.4.o L 3.y r 5.l 5 ] ' 7 T ] t 7 6.z R z 0 T R R V.J.|.|.3X&X6Xr.  ",
"  0.@             O E C.*X&X8XeX6X4X;X4X<X.X`..X/.( %.%.P 9 y g X g ] 7 - t , X 6 u O : , > 5 5 7 8 7 : 0 t o A.<XR.^.).!.OXr.  ",
"  0.=             ! S.k.,.<.>.9.9.,.;.-.-.;.;.;.;.e b ..~ r   7 & & 7   q P g X J I , o I r 5 g H * 7 7 0 :   d.`.!.^.^.!.+Xw.  ",
"  0.O                                                 1 x 6   y - p b n > $ j $ 2.4.g 0 ] I H R ] H U K U H 0 Y.`._._.^.^.@Xq.  ",
"  0.=                     X       X     e P.I.y     > @ : O $ 6 > - 7 N w X ,   * d X X : t * 8 H f z 0 o %   } J.L.!.).K.^.q.  ",
"  0.<                               y I.,X:X8X%Xu = }.G.O   . $ 6 O   X & 9 X o o               * & * o   > 7       , a X q :.  ",
"  0.@                           X   m.rX0X XOX6XeX%XoX<X}.9.-     8 g O     X o X X $ X O O X o o o g W y.[.>XI.E         1 :.  ",
"  0.@                               @ 8.r.,.-.-.,.q.,.e.z.H.t.a [ G.*XS.| x & : $ 6 & $ $ X O 7 % F.8X7X8X8X5X8XqXa   X   q :.  ",
"  0.=                                                 O 3 y [ | J.0XR.,.q.$.f 8 5 8 & 6 % > > : I 7XtX,X,X>X2X>XqX[   X   3 :.  ",
"  0.#                                   +   +   X     X > j E [ 9.9.8.: * 5 5 : 5 : 5 6 8 > f [.2X1XtX,X)./.).2X2X=XM . e ( 8.  ",
"  0.#         8.y.3 x =         X                                   X : 0 6 f f d 0 8 6 &   B.eX*X*XtX|.!.^.|.2X2XqXH.T.7XeXr.  ",
"  0.=       B.>X[ a g.$.                                        +   - > > 5 * 5 7 8 > 7 O   l >X:X>X1X(././.).oX:X&X7X1X&X6Xq.  ",
"  0.O     q 0Xl H.$.y O   E 0.y x :.e q m.8.x q   , 7.` y             : X 5 * & X : %         A.qX1X2X*X{.(.^.^.!.!.&X^.Q.OXr.  ",
"  0.@     j 7X6 P.[ a + O g.a i.8.i.k   n.j ( l   j n.j X               o 5 5 o   O $   O r E %X9X2X1X{./.^.~.!./.*X;X^.^. X;.  ",
"  0.=       $XS.j   e y . m.| i.q 8.m.  u.e ( $., x k.E ,               *     e 8.-   E %X1X7X5X2X:X>XXXQ.(.XX{.:XXX/.^.!.`.-.  ",
"  0.O       q I.H.H.k.3   ,   ; 1 k -   - + < l l - k k ,               X E x }.eX-X:.wX0X6X<X4X<X`.OX@X`..X.X4X;X'.`.`.`.@X;.  ",
"  0.=           y y +     O 3 < X   X x 0.k.| O   X   = +               e S.N.j.e.j.N.l.e.j.e.d.t.d.t.e.d.e.e.d.d.d.d.d.e.z.0.  ",
"  0.<                 X   x :.0.= O m.i.0.U.eX2Xn.$ E g.                                                                  3 :.  ",
"  0.@                     , 3 q   i.l     . M.y.-   U.m.  X                   X       X       X X       X           X     q :.  ",
"  0.@               < Q q - q L X I.i.k x ( }   .   k.k.  X                                                               3 :.  ",
"  0.=                 x j $.} 0.  W 7X7X7X7X2X2X=XE r.S.| y.= [ ,   E X                                                   3 :.  ",
"  0.@                 O O O = y =   = q , j 8.i.eXB.C.I.B.( y 7XD.g.U.                                                    3 :.  ",
"  0.<                                     = |   m.m.m.B.I.m.  i.G.y.E.                                                    3 :.  ",
"  0.=                                 O   r.qX! , 8.y.g.r.].  8.P.r.E.                                                    3 :.  ",
"  0.@                             X       [ C.  ( r.k.} ! E.  h.G.0.].                                                    3 :.  ",
"  0.@                               X a k , Q - S.= [ B.{ ].O U.[.q.tX-                                                   3 :.  ",
"  0.=                           O 8.%XqX7X].k.A.y   O O :.]., 8.C.= G.|                                                   q :.  ",
"  0.O                         X n.i.` H.7XqX,Xa         q y y.E.=XT.` O                                                   3 :.  ",
"  0.=                         > r.X     E =Xx   X         - y   f 8.#                                                     3 :.  ",
"  0.<                           > #       = X                                                                             3 :.  ",
"  0.@                                                                                                                     3 :.  ",
"  0.@                                                                                                                     3 :.  ",
"  0.=                                                                                                                     3 $.  ",
"  0.#                                           = = O = =         , q 3 <     , > -     O + , q 1 3 3 1 3 , 3 3 1 3 3 q - P 9.  ",
"  0.#                                           y.>X3 S.n.  X   8.0.x ( (   0.x q Q k , Q x r.k.g.g.g.g.k.k.g.k.g.g.g.g.i.N.W   ",
"  9.#       , =   O X = O = - -               k x 2X= S.n.    , =X=       k T.    $ H.x y.E                                     ",
"  0.=     O [ 8.  k C ` x ( E }             { y y 5X= A.k.    y =X-   -   8.T.      #Xx . O             X                       ",
"  0.<     X x !   j y q y k O e X         [ 8.E 8.1X< C.k.    q =X=   = B.8.Y.      ].j = . q < q 3 y =   O , ; 3 , - q         ",
"  i.E a j a j j a a j j a a j a a j j = :.k     y eX> P.C.  - O m.u.} :.k.O C.q   j i.q i.C Q C | > Q E [ [ :.| 7.$.$.E         ",
"  j } [ [ [ [ [ [ [ [ { { [ [ [ [ [ [ k !       y | 3 E Q u k q O Q ! ! =   = l j j . . a < y - =   < ; q e = - - : y y         ",
"                                                                                                                                "
};
