/* XPM */
static char *f5a2a41f2d334398839ed992f224ef21ETynJ7JBzGUbEwV4[] = {
/* columns rows colors chars-per-pixel */
"50 50 232 2 ",
"   c #E9376E",
".  c #E93971",
"X  c #EC3B73",
"o  c #F13E77",
"O  c #E54775",
"+  c #EC4275",
"@  c #F3437B",
"#  c #F64B7F",
"$  c #E8547D",
"%  c #F6587E",
"&  c #EF6E7E",
"*  c #F36B74",
"=  c #F3647D",
"-  c #F26C7E",
";  c #ED7378",
":  c #EE7D7C",
">  c #F2747E",
",  c #F17C7E",
"<  c #DF9F65",
"1  c #CA8A7A",
"2  c #E69B6B",
"3  c #EA9B6A",
"4  c #EB8879",
"5  c #EC8B7B",
"6  c #F2837B",
"7  c #E69976",
"8  c #EA9379",
"9  c #DBA36A",
"0  c #DEA877",
"q  c #DEB179",
"w  c #E4A764",
"e  c #E3A36B",
"r  c #E3AA6D",
"t  c #E6A573",
"y  c #E4AB74",
"u  c #E7A878",
"i  c #E6B179",
"p  c #D85E8A",
"a  c #EF4E80",
"s  c #F54D83",
"d  c #F94D83",
"f  c #F94884",
"g  c #EB5984",
"h  c #F55384",
"j  c #F95484",
"k  c #F55A83",
"l  c #F4548A",
"z  c #FA5689",
"x  c #F55B8A",
"c  c #FB5B8D",
"v  c #ED5C92",
"b  c #F95C93",
"n  c #FC5E92",
"m  c #D77985",
"M  c #DA6E9A",
"N  c #CE7B9A",
"B  c #D2779D",
"V  c #EA6284",
"C  c #E86A87",
"Z  c #F46382",
"A  c #FA638E",
"S  c #F56989",
"D  c #EB758A",
"F  c #F27484",
"G  c #EA6596",
"H  c #F66493",
"J  c #FC6393",
"K  c #F36C93",
"L  c #FB6A96",
"P  c #FA659B",
"I  c #F56B9A",
"U  c #FC6C9A",
"Y  c #ED7493",
"T  c #EC779A",
"R  c #F7759C",
"E  c #FC739D",
"W  c #F7789A",
"Q  c #FB7A9E",
"!  c #D37CA7",
"~  c #F769A1",
"^  c #EA7AA6",
"/  c #FC76A2",
"(  c #F57CA3",
")  c #F578A6",
"_  c #FB7AA3",
"`  c #5C86C6",
"'  c #5D89C7",
"]  c #5C86C8",
"[  c #5E8BC9",
"{  c #638FC6",
"}  c #618CCA",
"|  c #6592CD",
" . c #6A96CD",
".. c #6C99CE",
"X. c #729BCE",
"o. c #6796D0",
"O. c #6996D1",
"+. c #6A9AD3",
"@. c #6B9CD5",
"#. c #729ED2",
"$. c #709FD8",
"%. c #6FA1D7",
"&. c #6FA1D9",
"*. c #73A2D5",
"=. c #79A5D5",
"-. c #7CAAD6",
";. c #73A5DB",
":. c #76AADE",
">. c #7BADDD",
",. c #7EB0DE",
"<. c #77ABE0",
"1. c #79ADE1",
"2. c #7DB3E5",
"3. c #7FB6E8",
"4. c #BC9B89",
"5. c #BDA489",
"6. c #BA95B9",
"7. c #CB8782",
"8. c #D6878B",
"9. c #C6998A",
"0. c #DC8F9B",
"q. c #D29692",
"w. c #ED8C83",
"e. c #E28789",
"r. c #E99785",
"t. c #F3908D",
"y. c #EA879B",
"u. c #F88797",
"i. c #F79A97",
"p. c #DEB580",
"a. c #E9A984",
"s. c #E6B586",
"d. c #EAB98D",
"f. c #EAAB97",
"g. c #FAA69C",
"h. c #E9BC97",
"j. c #F9B797",
"k. c #CB88AC",
"l. c #C88CB1",
"z. c #D789B2",
"x. c #E988A9",
"c. c #F585A5",
"v. c #FB82A5",
"b. c #F487AA",
"n. c #FA84AB",
"m. c #FA8CAD",
"M. c #EA97A9",
"N. c #F797A7",
"B. c #F388B3",
"V. c #ED9EB3",
"C. c #F595B3",
"Z. c #F79BB7",
"A. c #E9A7B8",
"S. c #F4A6BC",
"D. c #F4B7B2",
"F. c #ECC39D",
"G. c #EBC6A7",
"H. c #ECCCB2",
"J. c #F3CBB6",
"K. c #EDD2B7",
"L. c #829FD0",
"P. c #AF9CC0",
"I. c #BA9EC1",
"U. c #81AED9",
"Y. c #9AADD2",
"T. c #83B3DC",
"R. c #88B7DF",
"E. c #88B9DE",
"W. c #ACBEDB",
"Q. c #80B6E6",
"!. c #84B9E5",
"~. c #8ABBE2",
"^. c #80B6E8",
"/. c #86BCE9",
"(. c #89BFEA",
"). c #93BBE3",
"_. c #FAA7C1",
"`. c #FAABC4",
"'. c #ECB5C5",
"]. c #EDBECA",
"[. c #FAB6CB",
"{. c #8EC0E4",
"}. c #8CC2E9",
"|. c #92C4E5",
" X c #9ACAE7",
".X c #93C5EA",
"XX c #96C7E8",
"oX c #95CAEC",
"OX c #99CCEB",
"+X c #9DD1EE",
"@X c #9DD3F0",
"#X c #A7CAE9",
"$X c #B2CEE8",
"%X c #A1D5EE",
"&X c #ABD3ED",
"*X c #A4D8EF",
"=X c #B5D6ED",
"-X c #A2D6F1",
";X c #AFD7F1",
":X c #A5DBF3",
">X c #AADDF4",
",X c #B4DDF3",
"<X c #BBDDF1",
"1X c #A7E0F4",
"2X c #AAE0F5",
"3X c #B3E1F4",
"4X c #BBE2F5",
"5X c #EEDAC3",
"6X c #F3D8C7",
"7X c #EFC9D3",
"8X c #F6C6D5",
"9X c #F2D1DA",
"0X c #EBE0CF",
"qX c #F3E0CE",
"wX c #F4E4D4",
"eX c #F6E6DB",
"rX c #F7E8DA",
"tX c #F5EADC",
"yX c #C7D6EA",
"uX c #D0D9EC",
"iX c #C6DDF1",
"pX c #F4DAE1",
"aX c #C2E4F5",
"sX c #CBE5F6",
"dX c #CEE8F6",
"fX c #D7E7F6",
"gX c #E7E6E6",
"hX c #F4E9E7",
"jX c #F9EDE3",
"kX c #F8F2E6",
"lX c #E3EBF7",
"zX c #E1EAF9",
/* pixels */
"` ` ] 1.| ` ` ` ` =.XX[ :.3.2.2.2.2.2.2.2.2.3.+.>X{.` ` ` O.:.[ ` ` ` } oX#.| 3.3.2.2.2.2.2.2.2.3.:.",
"` ` ;.^.[ ` ` ` ` } .X).{ 1.Q.^.^.3.2.2.2.%.[ ` *.|.` ` [ 3.:.[ ` ` ` ` :.+XX.o.3.^.^.3.2.2.2.3.} ' ",
"` } :.3.2.| [ ` ` | XXfXW. .3.Q.2.| ` ` o.2.@.] *.|.[ ` o.3.^.&.| ] ] ] ;.;XfX@.;.^.^.:.` ` ` :.1.} ",
"+.:.3.:.:.3.:.+.+.*.&XsX&X.X}.2.O.] ] ` ` +.2.| ~.+X;.+.3.6XtX2.^.+.+.+.Q.sXiXOX.X/.:.` ` ` ` ' <.:.",
"^.^.:.[ [ *.;.;.2.oX:X}.^.oXOX}.R. .` ` ` ` :.!.2X+XQ.^.G.3 e i F.qX:.(.-X+XQ.(.OXoX~.>.` ` ` ` } Q.",
"^.:.} ` ` ] ] ] >.-X>.:.3.3.Q.|.5Xh.kX] ` -.oXsXaX}.Q.eX* s = , 7 t i K.=X*.^.3.^.T.-X:XT.' ' ' |.;X",
"1.| ` ` ` ] ` R.@X/.` @.3.3.6Xs.t : 6 jXOX-X2XzX4XoXQ.%.; c n c j Z w.0 q 6X^.^.:.[ =.>X,X$X XOX2XaX",
":.` ` ` ` ` T.:X.X| ` [ ).G.t , h c = tX+X(.}.XX2X:X.X5X= J J J J c z 7.7 y h.yX;.` ] =.4XzX4X}./.}.",
">X>X>X:X:X:X>XdX.X' ` rXF.5 % x J J k f.tX6XjX[ *.f.6 * / E E U J J J 8.C ; u s.tX+.' ' U.>X.X3.[ [ ",
"4XzXlX4XdX1XaXfX.X| wXu a.j b J J L ( L - H r.6XJ.- ) ) q.( _ / E U J H H c % 7 u wX+.| R.oX2.} ` ` ",
"+XaXzX4X X X X*XoXeXu > z H J H E i.g.u._ Q U S I E Q 0.y.v.n._ n._ W U J J c x 8 y eX#X:X}.+.` ` ` ",
"#.-XaX-X' ` ` ~.hXy > z J Y Y / / v.Q / / E U U L L J J U E n.Z.].'.v./ E J J c k 7 q kX;X3.+.` ` ` ",
":.oX+X/.;.;.;.).s.6 H L J Y 9._ _ / / E U J J J n c n J J T J L m.9XZ._ / E J J b Z u d.#X3.+.` ` ` ",
"@XOX/.^.^.^.^.G.8 j c.L L _ 9.y./ E L c.b.c j h d h s s ! ! z J J U `.`._ _ / L 6.S - r K.3.+.` ` ` ",
"-X/.Q.^.^.^.wX7 % n J L / _ W ( E J n H V.d d d l f s h l d h h z n J S.`._ / E P.L z 5 r jX2.} ` ` ",
"OX[ [ [ [ [ s.: z J J E _ ( / U J n l s h d d d B l # d s s f s s j c J D.S./ _ 6.I c % u G.Q.2.2.;.",
"yX} ] ` ` 0X3 k J J U / / ( E J J j s d d s @ X p .   . + @ s z d d l S i._.m._ ^ U J z 6 e hX2.^..X",
"2XXX| ` ` d.e.c J J E / _ ( L J z d d d @   g A.7XpXpX7XA.$ + T d d s h A L _.( _ E J J j t H.` 1.&X",
" X1X|.} jXw B c J i._ _ S.A.E z G l s o O '.oX|.Q./.|.:X:XyXA.$ @ f G l z L b.m._ / L n.M.f.r ] +.%X",
" .OX2X{.K.7 x J L j./ _ E n J h 6.v o $ pX=.%XO.:.;.` U.>X-XE.7X+ s v N f n D M./ / U b.x.F e jX).XX",
"` #.+XOXd.6 k J L j._ / U H c d k.M O pX#.%X|.} | 1.o.` T.:XoXoX].. h h h l A 0.c._ / J J l u 5X*X=.",
"` ` |.(.e - b A ~ g.Q / J J z s v p V.OX=X#X| ` | ^.@.` | -XQ.^.Q.T @ d s d J L ( _ _ J H s 7 G.=.` ",
"` ` |.kX< k n H U Q / E J J j d s X hX3XdX>X-X .2.^.@.` | :XoX3.+.7XX d s s c ~ _ _ Q I J j 5 d.%X~.",
"{ R.>XeX9 j H Y y._ E R J J d d @ Y Q.!./.oX:X:X^.^.*.{ -X4XdXoX3.L.. d h f z l.( _ ( l.I z : y :X:X",
"2X2XiXwX9 % J 8.0._ _ E u.n h d @ M.' 1.1.>.1.:X:X:X2X>X3XuXuX4XoX(.$ # s s j l._ _ x.^ J z , w 1.{.",
":X+XT.wX9 C J e.q._ _ W j.t.d d o V.} } } } } *X,X+X2X+X+X+.+.{.%X%Xg 1 7.m k z.( / / U H z : w [ >.",
"T. .1.eX< s J S 4.Q / E L u.l a o M.` ` ` ` ` *XsX>X+X..;.Q.^.Q.Q.3.O V # s z L / _ _ U J l D r ` -.",
"` ` O.jX9 k J J T / / E J n V 1 $ C ` ` ` o.;.XX2X+X#.` ' ;.Q.:.@.pX  s d d c J ( _ / U J m , p.$.,.",
"` ` ` yX9 = n J U / v._ J J x g s . hX:.:.1.3.*.2X|.` ` `  .>.} ] A.X s s d c E S.( / L J V 8 h.Q.>.",
"` ` @.2.i > c J L / ( c.J J c h Z X x.Q.Q.;. .' T.|.` ` [ 1.;.] hXO s % s d J W v./ / J J d 7 H. .} ",
"` ` :.^.G.5 z J L _ _ _ U J J j i.S . 7X@.2. .` *.|.` ` } 3.3.+.y.X k t.j z J E / / E J c h 2 qX<.` ",
"} %.^.2.5X7 h H L m.( _ Q J J b j S @ O 7X$.2.} =.OX$.} 2.3.2.M.. s s j h n L _ / ( U L z - w gX2.;.",
"3.3.2.} W.9 = l.J Z.( v.j.U J J l d d @ . V.hX*.2X+X3.3.3.9XD X # d d d c H E _ y.( J J j 8 d.` } >.",
"Q.2. .` ` F.r.l.H ( _.N.j./ J I H j s d a + + y.A.].].A.C + x.K d s x z J ^ ^ Q 5.Y J c w.y 6X` U.%X",
"2.o.` ` ` wX0 k.c J `.D.g.( ) l.P H j d d d # @ o o o @ f s x x s h j.A P l.B._ 5.K P h w.y gXE.>XaX",
">.] ` ] ] ] d.w.j J U 6XN._ x.^ J H J z d d d d d h d j F d s s k c j.U Q x./ / 8.K c j 3 K.4XoXoXOX",
"+XoXOXOX X XtXe = x J n.8X( / _ E L J J J z h V C s s j i.d z n J L i.g.( _ Q U A n h 5 a.4X%X^.O.o.",
"4XfXfX3XdX1XaXG.7 k C.H m.8Xn._ / C.A.Z.J J J K 4.b x A g.J T I J E _ u._ / U H H l F e eXOX^.+.] ] ",
">XsXlX4X>X:X>X>Xs.5 Y H L m.8Xm./ ( C.m.U L J J D L L J W K 6.) / / _ _ _ U H c.T % 7 K.:XoX+.` ` ` ",
"*.:XsX,X} ] ` ~.kX0 6 l c L Q [._._ / _ _ _ / U I U U E E W I._ / / _ / U J J z y.7 h.fX*X3.+.` ` ` ",
"@.oX-X/.+.o.O.>.OXrXy 4 h c A P m.`.Z.( _ _ ( _ ( b./ / / _ I._ / / R H l.G j % 8 d.|.#X=X3.+.` ` ` ",
"oXoX}.^.3.Q.Q.^.Q.' rXy 5 % u.J J H ( n._ x.x.Q _ A._ / / W z./ U J L J G M = 7 h.OX .[ :.3.+.` ` ` ",
"-X}.3.^.Q.Q.Q.^.^.' ` kXs.t w.d x 8.K L J z.x./ E n.( E E U L J J J n l h F 2 H.&X..` ] O.3.:.} ` ` ",
"+X+.+.+.+.+.:.^.3.;.` ` XXH.t 4 x V 9.x J ^ k.J J J J A 8.H J J c j d Z 8 y qX+X#.` ` } 1.3.3.<.:.@.",
"yX` ` ` ` ` } :.^.3.<.~.:X..jXh.3 5 1 C h x ! c n J H D m z j d j & 8 e H.#X+XOX` ` ` 1.3.3.3.3.3.}.",
">X~.' ` ` ` ` [ [ Q.^.OX2XX.[ O.tXF.t 3 6 F k s j h s h j S r.7 7 u K.gX3.!.:X X[ [ :.3.:.[ [ [ 3.#X",
"-X2XR.} [ ...... .(.>XsXzX3X:XQ.2.o.Y.5XF.s.e 2 2 3 3 3 e r d.H.eX ...:.@X>XlXdX:XoX2.:.] ] ` ` +.:X",
"X.-X>XT.>.>X:X%X-X+X+X<X;X>X2XoX .` ` ] ]  .OXkXjXrXtXjXaX%X*.XX2X-X-X@X+X@XiX*X2X1XT.' ` ` ` ` U.XX",
"` =.%X+X+X+X}.3.:.*.O.Q.>.{.2X4XoX .` `  .OXOX| | :.| ` |.:X+X+X+XQ.2.;.| 1.3.,.+X4X2X-.` ` ` -.:XT.",
"` ` |.}.^.^.3.:.[ ` O.1.| T.,XaX2XXXE.E.#X&X..` | 3.@.` | -XQ.Q.Q.3.+.` ` 1.%...OXaX3X:X~.~.~.<XR.] "
};
