/* XPM */
static char *dc2946cd01214ec2c56cdd95cc81f769f4DEkCCQswkYZkz6[] = {
/* columns rows colors chars-per-pixel */
"50 50 69 1 ",
"  c #D85F6C",
". c #D8636F",
"X c #D86571",
"o c #D96873",
"O c #D96874",
"+ c #DA6C77",
"@ c #DA6D78",
"# c #DA707A",
"$ c #DB737D",
"% c #DB757E",
"& c #DC7680",
"* c #DC7A83",
"= c #DC7C85",
"- c #DD7F88",
"; c #DE838B",
": c #DF878F",
"> c #DF8A92",
", c #DF8C93",
"< c #E08B93",
"1 c #E08F96",
"2 c #E19399",
"3 c #E2949B",
"4 c #E2979E",
"5 c #E3999F",
"6 c #E39AA0",
"7 c #E39CA2",
"8 c #E49FA5",
"9 c #E3A0A5",
"0 c #E4A0A6",
"q c #E5A3A9",
"w c #E4A5A9",
"e c #E6A6AC",
"r c #E6A8AD",
"t c #E7ABB0",
"y c #E6ACB1",
"u c #E8AEB2",
"i c #E8AFB4",
"p c #E8B1B6",
"a c #EAB7BB",
"s c #EBB8BD",
"d c #EBBCBF",
"f c #EABDC1",
"g c #ECBFC3",
"h c #ECC0C3",
"j c #ECC1C4",
"k c #EEC4C7",
"l c #EEC6CA",
"z c #EFCBCD",
"x c #EFCFD1",
"c c #F0CED1",
"v c #F1D0D3",
"b c #F1D2D4",
"n c #F1D5D7",
"m c #F3D9DB",
"M c #F4DADC",
"N c #F4DCDE",
"B c #F5DFE1",
"V c #F7E2E3",
"C c #F6E2E4",
"Z c #F7E4E5",
"A c #F8E7E9",
"S c #F8E9EB",
"D c #F9EBEC",
"F c #FAEFEF",
"G c #FBF1F2",
"H c #FCF5F6",
"J c #FDF8F9",
"K c #FEFBFC",
"L c #FEFDFD",
/* pixels */
"y.................................................",
"w.................................................",
"w.................................................",
"w.................................................",
"w.................................................",
"w.................................................",
"w.................................................",
"w................>.....;@.........................",
"w................qe...*kX.........................",
"w.................p2.+l@..##......................",
"w.................Xj;j-...z>...O>w................",
"w..................OV6....j....p,e................",
"w..................qpjX..@N>rr87>e................",
"w.................1a.>s...j4q;hd,e................",
"w................=jX..0r..j77&gd,e................",
"w................u+....r#.pojgpy:6................",
"w.................................................",
"w.................................................",
"w.................................................",
"w.................................................",
"w.................................................",
"w.................................................",
"w.................................................",
"w.................................................",
"w.................................................",
"w.................................................",
"w...................3....*51O.....................",
"w..................:m...rJLLS;....................",
"w.................XNB..:Jc;1AZX...................",
"w.................wLB..jDo..:L<...................",
"w................@FHB..nl...OGy...................",
"w................jFzB..XX...#J0...................",
"w...............:J0lB.......yJ%...................",
"w..............XMm.lB......%Gz....................",
"w..............qJ:.lB.....XbG$....................",
"w.......2vvv6.@Fj..lB.....tL7.....O...............",
"w.......rJJJp.jLjffCFf%..;Hk.....Xr&pXurXaq.......",
"w........   .;HKKKKLLJ:.oCCO.....7=.t;68r;uX......",
"w............XOOOOOlVoX.jH;XXX..Xt..t2:2kOr@......",
"w..................lB..5LHZZZZ9.1>..t=0w81iX......",
"w..................wa..dxxxxxx3.t...2.07Xr2.......",
"w..............................@2.................",
"w.................................................",
"w.................................................",
"w.................................................",
"w.................................................",
"w.................................................",
"w.................................................",
"w.................................................",
"w................................................."
};
