/* XPM */
static char *ae16af152c284dcacc2b61bdfb3c6af5MQXi5tF5x5EY6rhf[] = {
/* columns rows colors chars-per-pixel */
"50 50 73 1 ",
"  c #D8636F",
". c #D86571",
"X c #D96873",
"o c #D96874",
"O c #DA6C77",
"+ c #DA6D78",
"@ c #DA707A",
"# c #DB727C",
"$ c #DB757E",
"% c #DC7680",
"& c #DC7A83",
"* c #DC7B84",
"= c #DC7C85",
"- c #DD7F88",
"; c #DE838B",
": c #DE878E",
"> c #DF8A92",
", c #DF8C93",
"< c #E08C93",
"1 c #E08F96",
"2 c #E09197",
"3 c #E19399",
"4 c #E1949B",
"5 c #E2979E",
"6 c #E3989F",
"7 c #E39AA0",
"8 c #E39CA2",
"9 c #E49FA5",
"0 c #E4A0A6",
"q c #E5A3A9",
"w c #E4A5A9",
"e c #E6A6AC",
"r c #E6A8AD",
"t c #E7ABB0",
"y c #E6ACB1",
"u c #E8AEB2",
"i c #E8AFB4",
"p c #E8B1B6",
"a c #EAB7BB",
"s c #EBB8BD",
"d c #EBBCBF",
"f c #EBBDC0",
"g c #ECBFC3",
"h c #ECC0C3",
"j c #ECC1C4",
"k c #EEC4C7",
"l c #EEC6CA",
"z c #EEC8CB",
"x c #EFCBCD",
"c c #EFCDCF",
"v c #F0CDD0",
"b c #F1D3D5",
"n c #F2D4D7",
"m c #F2D6D8",
"M c #F3D9DB",
"N c #F3DADC",
"B c #F4DADC",
"V c #F4DCDE",
"C c #F5DFE0",
"Z c #F7E2E3",
"A c #F6E3E5",
"S c #F7E5E6",
"D c #F7E6E8",
"F c #F8E8E9",
"G c #F9EDEE",
"H c #FAEFF0",
"J c #FBF3F3",
"K c #FBF3F4",
"L c #FCF7F7",
"P c #FDF7F8",
"I c #FDF8F8",
"U c #FEFBFC",
"Y c #FEFDFD",
/* pixels */
"y                                                 ",
"w                                                 ",
"w                                                 ",
"w                                                 ",
"w                                                 ",
"w                                                 ",
"w                                                 ",
"w                >     ;+                         ",
"w                qe   &k.                         ",
"w                 p3 Ol+  @@                      ",
"w                 .j;j-   x>   o>w                ",
"w                  oZ7    j    p,e                ",
"w                  qpj.  +V>rr98>e                ",
"w                 1a >s   j5q;hd,e                ",
"w                =j.  0r  j88%gd,e                ",
"w                uO    r@ pXjgpy:7                ",
"w                                                 ",
"w                                                 ",
"w                                                 ",
"w                                                 ",
"w                                                 ",
"w                                                 ",
"w                                                 ",
"w                                                 ",
"w                                                 ",
"w                                                 ",
"w            O;;;;+    $6;.                       ",
"w            pYYYYw   wLYYx.                      ",
"w            nm333$  :Ix;rIs                      ",
"w           XHr      bZ.  sJ+                     ",
"w           ;Y&     +Pe   @I0                     ",
"w           pYGZ8   5I&    Zl                     ",
"w           bVcGYe  rL.    vN                     ",
"w           ;  oMJo pJ     zC                     ",
"w               :U6 iL     xV                     ",
"w               .Ky 0IO    mb   o                 ",
"w               oLt ;I2   .Ga  ;557$s3:s:         ",
"w         .5.   3Y1  Fl   4Y;  r.+erouu.u         ",
"w         =Is. #DS.  yI< OAM. $0 +eu ur u         ",
"w          gYSmJK>   .BIMGK;  w+ +er#py+u         ",
"w           qmVk=     ofVv;  or  o1+u:&u*         ",
"w                            1$                   ",
"w                                                 ",
"w                                                 ",
"w                                                 ",
"w                                                 ",
"w                                                 ",
"w                                                 ",
"w                                                 ",
"w                                                 "
};
