/* XPM */
static char *_d4aeb7aae1847a3a3067b9de0e0bf290cgv0rdm7q1u8SG5[] = {
/* columns rows colors chars-per-pixel */
"50 50 67 1 ",
"  c #5AB75A",
". c #5BB85B",
"X c #5CB85C",
"o c #62BA62",
"O c #66BB66",
"+ c #67BC67",
"@ c #68BC68",
"# c #6FBE6F",
"$ c #70BE70",
"% c #74BF74",
"& c #6FC06F",
"* c #70C070",
"= c #76C176",
"- c #78C078",
"; c #7CC37C",
": c #7FC47F",
"> c #80C380",
", c #80C480",
"< c #87C687",
"1 c #8AC78A",
"2 c #8AC88A",
"3 c #8DC98D",
"4 c #92CB92",
"5 c #91CC91",
"6 c #94CB94",
"7 c #94CC94",
"8 c #9BCF9B",
"9 c #9DCF9D",
"0 c #9BD09B",
"q c #9FD19F",
"w c #A2D2A2",
"e c #A7D3A7",
"r c #A7D4A7",
"t c #ABD5AB",
"y c #AFD6AF",
"u c #AFD8AF",
"i c #B0D7B0",
"p c #B2D8B2",
"a c #B4D9B4",
"s c #B7DCB7",
"d c #B9DBB9",
"f c #BBDDBB",
"g c #BDDEBD",
"h c #C1DFC1",
"j c #C3E2C3",
"k c #C5E1C5",
"l c #C8E3C8",
"z c #C9E5C9",
"x c #CCE5CC",
"c c #D1E7D1",
"v c #D1E8D1",
"b c #D7EBD7",
"n c #D9EBD9",
"m c #DAECDA",
"M c #DCEDDC",
"N c #E0EFE0",
"B c #E2F0E2",
"V c #E6F2E6",
"C c #E9F3E9",
"Z c #EAF4EA",
"A c #ECF5EC",
"S c #F1F7F1",
"D c #F2F9F2",
"F c #F6FBF6",
"G c #F8FBF8",
"H c #F9FCF9",
"J c #FCFDFC",
/* pixels */
"XXXXXXXXXXXXXXXXXXXXXXXXXXXXXXXXXXXXXXXXXXXXXXXXXX",
"XXXXXXXXXXXXXXXXXXXXXXXXXXXXXXXXXXXXXXXXXXXXXXXXXX",
"XXXXXXXXXXXXXXXXXXXXXXXXXXXXXXXXXXXXXXXXXXXXXXXXXX",
"XXXXXXXXXXXXXXXXXXXXXXXXXXXXXXXXXXXXXXXXXXXXXXXXXX",
"XXXXXXXXXXXXXXXXXXXXXXXXXXXXXXXXXXXXXXXXXXXXXXXXXX",
"XXXXXXXXXXXXXXXXXXXXXXXXXXXXXXXXXXXXXXXXXXXXXXXXXX",
"XXXXXXXXXXXXXXX9oXXXXXXXXXXXXXXXXXXXXXXXXXXXXXXXXX",
"XXXXXXXXXXXXXXeJkXXXXXXXXXXXXXXXXXXXXXXXXXXXXXXXXX",
"XXXXXXXXXXXXX4HJdXXXXXXXXXXXXXXXXXXXXXXXXXXXXXXXXX",
"XXXXXXXXXXoX>DJxXXXXXXXXXXXXXXXXXXXXXXXXXXXXXXXXXX",
"XXXXXXXXX3Z3CJMOXXX. X.X.X  X. XX .X .X XXXXXXXXXX",
"XXXXXXXX.cJJJZ#XXXXfj;y;t<xj+jx3exsozu1v2XXXXXXXXX",
"XXXXXXXXX#CJD:XXXXXj8>a:ikOX8w.@mdm-z<4j#XXXXXXXXX",
"XXXXXXXXXX,A4XXXXXX;k7a<yk@o8r.@z&7$-c-<gXXXXXXXXX",
"XXXXXXXXXXXOXXXXXXXgk+gz=,zjOgz3wxa#zf4x8XXXXXXXXX",
"XXXXXXXXXXXXXXXXXXX..X..XX..X. XX .X..X XXXXXXXXXX",
"XXXXXXXXXXXXXXXXXXXXXXXXXXXXXXXXXXXXXXXXXXXXXXXXXX",
"XXXXXXXXXXXXXXXXXXXXXXXXXXXXXXXXXXXXXXXXXXXXXXXXXX",
"XXXXXXXXXXXXXXXXXXXXXXXXXXXXXXXXXXXXXXXXXXXXXXXXXX",
"XXXXXXXXXXXXXXXXXXXXXXXXXXXXXXXXXXXXXXXXXXXXXXXXXX",
"XXXXXXXXXXXXXXXXXXXXXXXXXXXXXXXXXXXXXXXXXXXXXXXXXX",
"XXXXXXXXXXXXXXXXXXXXXXXXXXXXXXXXXXXXXXXXXXXXXXXXXX",
"XXXXXXXXXXXXXXXXXXXXXXXXXXXXXXXXXXXXXXXXXXXXXXXXXX",
"XXXXXXXXXXXXXXXXXXXXXXXXXXXXXXXXXXXXXXXXXXXXXXXXXX",
"XXXXXXXXXXXXXXXXXXXXXXXXXXXXXXXXXXXXXXXXXXXXXXXXXX",
"XXXXXXXXXXXXXXXXXXXXXXXXXXXXXXXXXXXXXXXXXXXXXXXXXX",
"XXXXXXXXX..XXXXXXXX#=XXXXXXXXX**XXXXXXXXXXXXXXXXXX",
"XXXXXXXXxJJdXXXXX$vJJN<XXXXX=bJJm-XXXXXXXXXXXXXXXX",
"XXXXXXXOkvHdXXXXoNHkgDS=XXX@VFjgFZ#XXXXXXXXXXXXXXX",
"XXXXXXXX.OFdXXXXyJ8XX;FxXXXdH3XX1HgXXXXXXXXXXXXXXX",
"XXXXXXXXX+FdXXXXVnXXXXgH#XOAcXXXXlD@XXXXXXXXXXXXXX",
"XXXXXXXXX+FdXXX>JeXXXX,HeX2J7XXXX3J4XXXXXXXXXXXXXX",
"XXXXXXXXX+FdXXXqJ;XXXXXDjXpH=XXXX#FdXXXXXXXXXXXXXX",
"XXXXXXXXX+FdXXXaF#XXXX.VbXhDoXXXXXAkXXXXXXXXXXXXXX",
"XXXXXXXXX+FdXXXgD@XXXX.MMXkSXXXXX.AxXXXXXXXXXXXXXX",
"XXXXXXXXX+FdXXXdF@XXXX.BnXjDXXXXXXAzXXXXXXXXXXXXXX",
"XXXXXXXXX+FdXXXeJ=XXXX.SlXdF#XXXX+DgXXXXXXXXXXXXXX",
"XXXXXXXXX+FdXXX1J8XXXX=HyX7J3XXXX,JqXXXXXXXXXXXXXX",
"XXXXXXXXX+FdXXXoAxXXXXyJ-X#FhXXXXdF$XXoXXXXXXXXXXX",
"XXXXXXXXX+FdXXXXgG:XX+ZmXXXzF=XX#SvXXo53$q275XXXXX",
"XXXXXXXXX+FdXXXX$AZ96mH3XXX-FV87NF,XX3@:2,987XXXXX",
"XXXXXXXXX+FdXXXXX2AJJFeXXXXX7DJJF8XXo5X:,7800XXXXX",
"XXXXXXXXXX4-XXXXXX#we-.XXXXXX$ww=XXX2@XOo-@%$XXXXX",
"XXXXXXXXXXXXXXXXXXXXXXXXXXXXXXXXXXXXXXXXXXXXXXXXXX",
"XXXXXXXXXXXXXXXXXXXXXXXXXXXXXXXXXXXXXXXXXXXXXXXXXX",
"XXXXXXXXXXXXXXXXXXXXXXXXXXXXXXXXXXXXXXXXXXXXXXXXXX",
"XXXXXXXXXXXXXXXXXXXXXXXXXXXXXXXXXXXXXXXXXXXXXXXXXX",
"XXXXXXXXXXXXXXXXXXXXXXXXXXXXXXXXXXXXXXXXXXXXXXXXXX",
"XXXXXXXXXXXXXXXXXXXXXXXXXXXXXXXXXXXXXXXXXXXXXXXXXX",
"XXXXXXXXXXXXXXXXXXXXXXXXXXXXXXXXXXXXXXXXXXXXXXXXXX"
};
