/* XPM */
static char *d1f92f10548e4b08b9d6fb3018a583f4P1jlrv2aNcdDIz48[] = {
/* columns rows colors chars-per-pixel */
"50 50 244 2 ",
"   c #3D1219",
".  c #151921",
"X  c #2F1D29",
"o  c #391A24",
"O  c #2B2934",
"+  c #4D0C0F",
"@  c #590808",
"#  c #591316",
"$  c #630B0B",
"%  c #741011",
"&  c #771617",
"*  c #4D1B25",
"=  c #671B29",
"-  c #47262B",
";  c #4B2938",
":  c #562939",
">  c #6E2F35",
",  c #594736",
"<  c #313545",
"1  c #473042",
"2  c #773F52",
"3  c #2E4256",
"4  c #365370",
"5  c #464844",
"6  c #4D534C",
"7  c #474657",
"8  c #505054",
"9  c #754256",
"0  c #4B5C67",
"q  c #535470",
"w  c #585676",
"e  c #745869",
"r  c #4A6174",
"t  c #726F73",
"y  c #891415",
"u  c #941616",
"i  c #981A19",
"p  c #A41B1A",
"a  c #AC1C1C",
"s  c #B51C1C",
"d  c #B91E1E",
"f  c #A3221D",
"g  c #A9241D",
"h  c #B7241E",
"j  c #B62D1D",
"k  c #B9351C",
"l  c #BA3F1E",
"z  c #921E24",
"x  c #882328",
"c  c #952226",
"v  c #902F38",
"b  c #BD2422",
"n  c #B92924",
"m  c #B02B28",
"M  c #C1361E",
"N  c #C32524",
"B  c #C52A26",
"V  c #C72B27",
"C  c #CD2C2A",
"Z  c #D12E2B",
"A  c #CC3229",
"S  c #D4332D",
"D  c #D83A2C",
"F  c #C43230",
"G  c #DB3431",
"H  c #E23A33",
"J  c #AD561D",
"K  c #CC4E1B",
"L  c #D2721B",
"P  c #F07B19",
"I  c #CE4E2B",
"U  c #D94629",
"Y  c #E34C2E",
"T  c #E5542B",
"R  c #EB5D2C",
"E  c #E54432",
"W  c #E95230",
"Q  c #C97E26",
"!  c #EC6B23",
"~  c #EB6329",
"^  c #EE7126",
"/  c #F27522",
"(  c #873640",
")  c #A24450",
"_  c #B6922D",
"`  c #CF910E",
"'  c #FA8D0B",
"]  c #FE9602",
"[  c #FE9A01",
"{  c #FB910C",
"}  c #F88715",
"|  c #E5951A",
" . c #F99112",
".. c #C4A018",
"X. c #FEA302",
"o. c #FDAC02",
"O. c #F9A90C",
"+. c #FDB504",
"@. c #FDBD06",
"#. c #FAB80C",
"$. c #F5B014",
"%. c #CA8127",
"&. c #D3972F",
"*. c #F39225",
"=. c #CEA829",
"-. c #C5B62F",
";. c #E2B531",
":. c #E5BB32",
">. c #FDB534",
",. c #FDC006",
"<. c #FDC10A",
"1. c #FDC513",
"2. c #FCC71B",
"3. c #ECC72E",
"4. c #FACC22",
"5. c #FCD225",
"6. c #FDD629",
"7. c #FDDB2E",
"8. c #FDC43A",
"9. c #F8DA34",
"0. c #FEEA2D",
"q. c #FDE336",
"w. c #FEEA37",
"e. c #FBE53A",
"r. c #FEEA3B",
"t. c #FA9A52",
"y. c #F7B849",
"u. c #FDC849",
"i. c #FCD154",
"p. c #FEEA47",
"a. c #FEEA55",
"s. c #F7CC73",
"d. c #FBE969",
"f. c #FDED77",
"g. c #375B84",
"h. c #3F6587",
"j. c #4F5C85",
"k. c #49678A",
"l. c #54728E",
"z. c #59778B",
"x. c #446B9B",
"c. c #53779A",
"v. c #697890",
"b. c #4F74AB",
"n. c #4C76AA",
"m. c #537CA8",
"M. c #537DB7",
"N. c #648A9D",
"B. c #5A87AA",
"V. c #5A88B7",
"C. c #5782BD",
"Z. c #5F91BA",
"A. c #648AA6",
"S. c #7193A9",
"D. c #7398A8",
"F. c #79A6BA",
"G. c #5784C1",
"H. c #5C86C6",
"J. c #5C89C6",
"K. c #5C86C8",
"L. c #5E8BCA",
"P. c #628EC6",
"I. c #628DCA",
"U. c #6493CD",
"Y. c #6A98CA",
"T. c #739ACE",
"R. c #6797D1",
"E. c #6996D1",
"W. c #6A9AD3",
"Q. c #719ED4",
"!. c #6FA1D6",
"~. c #72A2D5",
"^. c #79A8D0",
"/. c #79A9D5",
"(. c #73A5DB",
"). c #76A9DE",
"_. c #7BADDC",
"`. c #77ABE1",
"'. c #79ADE1",
"]. c #7DB3E5",
"[. c #7FB6E8",
"{. c #8A9092",
"}. c #929EA8",
"|. c #90ADBB",
" X c #ABADB1",
".X c #FDD188",
"XX c #F9D999",
"oX c #FDEF96",
"OX c #FCDBA5",
"+X c #FDD4BA",
"@X c #FCF1B7",
"#X c #8AB5CF",
"$X c #81AED7",
"%X c #83B3DC",
"&X c #88B8DB",
"*X c #81B6E6",
"=X c #8BBBE1",
"-X c #80B6E8",
";X c #85BBE8",
":X c #94BDE3",
">X c #A4BEE0",
",X c #8BC1D9",
"<X c #98C5DA",
"1X c #AEC8D9",
"2X c #8EC1E4",
"3X c #8CC2E9",
"4X c #93C5E4",
"5X c #9ACAE6",
"6X c #93C5E9",
"7X c #95CAED",
"8X c #9ACCEB",
"9X c #9DD2EE",
"0X c #9DD2F1",
"qX c #A5C8E8",
"wX c #B2CEE8",
"eX c #A2D5ED",
"rX c #A8D5EE",
"tX c #B5D6EA",
"yX c #A5D6F1",
"uX c #A4DBF2",
"iX c #ABDDF3",
"pX c #B6DEF3",
"aX c #A7E0F4",
"sX c #AAE0F5",
"dX c #B2E2F4",
"fX c #BBE3F6",
"gX c #C4C7CA",
"hX c #D8D8D8",
"jX c #FDD7C1",
"kX c #FDE7C2",
"lX c #FEF6C6",
"zX c #FCEED8",
"xX c #FEF7D9",
"cX c #C7D9ED",
"vX c #C8DDF1",
"bX c #C1E4F5",
"nX c #CBE5F5",
"mX c #D9E7F7",
"MX c #ECECEC",
"NX c #FDF6E6",
"BX c #E3EBF8",
"VX c #F6F6F6",
"CX c #FCFAF6",
"ZX c #FDFDFC",
/* pixels */
"H.H.K.'.U.H.H.H.H.~.6XL.).[.].].].].].].'._._.U.uX=XH.H.H.R.(.L.H.H.H.I.7XQ.U.[.[.].].].].].].].[.).",
"H.H.(.-XL.H.H.H.H.I.6X:XI.'.*X-X-X[.].].Q.h.4 4 k.$XH.H.L.[.).K.H.H.H.H.).9XT.R.[.-X-X[.].].].[.I.J.",
"H.I.).[.].U.L.H.H.U.6XmX>XU.[.*X].U.H.H.V.4 # # 3 N.C.H.R.[.*X!.U.K.K.K.(.iXmXW.(.-X-X).H.H.H.).'.I.",
"W.).[.).).[.).W.W.~.rXnXrX6X3X].E.H.K.H.n.7 y u   O m.U.].].).].-XW.W.W.*XnXcX8X6X;X).H.H.H.H.J.'.).",
"-X-X).L.L.~.(.(.].7XuX3X-X7X8X3X%XY.H.H.n.7 u s i # X c./.W.H.W.(.(.).3XyX9X*X;X8X7X=X_.H.H.H.H.I.*X",
"-X).I.H.H.K.K.K._.yX_.).[.[.*X4XiX5XU.n.w ( p s a u y e c.M.H.H.H.H.Y.7X6X~.[.[.-X%XyXiX%XJ.J.J.4XiX",
"'.U.H.H.H.K.H.&X0X;XH.W.[.[.U.U.6XuX1XS.& f s s s s s u 7 x.C.H.H.I.8X7X~.K.[.[.).L.~.iXpXwX8X7XiXbX",
").H.H.H.H.H.%XuX6XU.H.L.`.[.H.H.U.&X{.> s s s d s s s u + . x.H.H.9XeX).L.K.E.-X(.H.K./.fXBXfX3X;X;X",
"iXiXiXuXuXuXiXnX6XH.H.L.).[.'.J.H.C.z.% d s s V S N s p u @ F.yXuXfXvX(.K.K.I.-X[.W.H.H.$XiX6X[.L.L.",
"fXBXBXfXmXaXbXmX6XU.U.(.-X-X-X).J.c.t i V h N U R U b s p y {.<XeXmXvX).I.I.[.-X-X-XW.U.%X7X].I.H.H.",
"9XbXBXfX5X5X5XyX7X3X;X].).`.).).T.8 c V G V S ^ } R A d d d x z.#X4XeX3X3X*X).).).).[.qXiX3XW.H.H.H.",
"Q.eXbXyXJ.H.H.=XiXiXyX_.H.H.G.B.O # i C H Y / ] ] ' ! H H H V c : < F.eXiX7XL.K.K.K.=XnXtX[.W.H.H.H.",
").7X9X;X(.(.(.'.6X&X&X&X=XqX&XB.+ u b G W /  .] ] ] } / / / T n i y e S.$X&X=X:X>X=X&X:XqX[.W.H.H.H.",
"0X8X;X-X-X-X-X-X[.H.H.^.wXmX#Xl.% h Z E ! ' ] [ [ [ ] ] ] ] / U V s z w b.G.pXmXnX4XI.L.(.[.W.H.H.H.",
"yX;X*X-X-X-X-X-X-XH.C.k.v.1Xr x s b D ^ ] ] [ o.+.X.[ [ [ [ ] P T V s c ; n./.fX5XI.K.K.E.-X].I.H.H.",
"8XL.L.L.L.L.(.-X*X!.w ) ) q v p N U ! ' [ [ o.@.@.+.X.[ [ [ [ { } T V p + n.U.8XI.H.K.I.[.-X*X].].(.",
"cXI.K.H.H.H.H.(./.A.9 n F * i b D ! } [ X.o.+.,.,.@.+.X.X.[ ] ] ' R C p + c.<X4XH.H.I.].[.].].].-X6X",
"sX6XU.H.H.H.H.G.n.: g Z F @ p A ~ ' ] o.@.@.@.,.,.,.@.@.@.X.[ ] { R C p @ O D.qX~.Y._.].!.H.H.H.'.rX",
"8XaX4XI.I._._.^.A.# a Z S n D ! { ] [ o.,.,.,.<.<.,.,.,.@.@.o.[ ] ~ C h a @ }.tXiXN.l.Y.H.H.H.H.W.eX",
"Y.8XsX2X=XsX9XF.l.# V G G U ! } ] [ X.+.,.,.,.2.5.1.,.,.,.,.+.X.] } T A d $ S.,XF.e e j.C.H.H.H.:X6X",
"H.T.9X8X7X7X%Xl.X & A H E ~ } [ X.X.+.@.,.<.1.6.q.5.<.,.,.,.,.+.[ ] ! D b $ c.Z.r i x ; M.H.H.=XyX/.",
"H.H.4X;X[.[./.k.& s b S ~ ] [ o.@.@.@.,.,.1.7.r.r.e.5.<.,.,.,.+.X.[ ^ D N $ k.V.0 i u - #X5X8XnX~.H.",
"H.H.4XiX*X!.4 < % b D ! } [ o.@.,.,.,.,.2.7.q.r.r.r.q.5.1.,.,.@.+.X./ E G a 2 t v V V c z.#XnXfXeX=X",
"P.&XiXmXiX/.O & f A ~ } ] [ +.@.,.,.,.1.6.q.r.r.r.r.r.7.4.1.,.,.@.X.P R E C f x n C V s ; B.*X;XiXiX",
"sXsXvXvXvX4X- m G W } ] [ X.+.@.,.,.<.5.r.r.r.r.r.r.r.r.q.4.<.,.@.X.] } R H C N G V s a ; m.).'.'.3X",
"iX9X%XY.~.<X- i C W  .] X.@.@.,.,.1.6.e.r.r.r.r.r.r.r.r.r.q.4.,.@.@.o.] ' R H S N s z : m.H.L.L.L._.",
"&XU.'.*X*X/.o u V W  .] X.,.,.,.,.1.7.r.r.r.r.r.r.r.r.r.r.r.5.,.,.,.o.[ ] R G V u y 9 k.C.H.J.H.H./.",
"H.H.E.].[.P.o u V W  .[ o.,.,.,.,.1.7.r.r.r.r.r.r.r.r.r.r.r.6.1.<.,.o.[ ] R Z a @ < h.C.H.H.J.H.Q._.",
"H.H.K.'.R.M.* i V R { o.@.,.,.,.,.2.7.r.r.r.r.r.r.r.r.r.r.r.r.7.1.,.o.[ [ R C a + m.W.(.(.(.(.(.*X_.",
"H.H.Q.].n.w n A T } ] o.,.,.,.,.2.7.q.r.r.r.r.r.r.r.r.r.r.r.r.7.1.,.@.o.[ ~ S a + 4 B._.*X*X*X[.U.I.",
"H.H.).].B.: S H ~ ] X.+.,.,.,.@.2.q.r.r.r.r.r.r.r.r.r.r.r.r.r.7.1.,.,.+.[ / U n & o 4 Z.J.L.L.'.'.H.",
"I.!.-X'.B.* h D ~ [ +.@.,.2.u.u.i.a.p.r.r.r.r.r.r.r.r.r.r.r.a.a.u.u.8.#.[ ] / U b % o O M.K.H.J.].(.",
"[.[.].I.x.O $ g K ] X.+.1.s.kXNXNXxXoXp.r.r.r.r.r.r.r.r.r.p.@XNXNXNXOXy.O.[ / Y b p y o M.H.H.H.I._.",
"*X].U.H.n.g.+ i K P ] +.i.kXNXZXZXCXxXoXw.r.r.r.r.r.r.r.a.oXNXZXZXZXzXOXi.O.} ! M s u - Y.K.H.H.$XeX",
"].R.H.H.C.n.* i h K  .y.XXZXZXVXMXMXVXlX0.r.r.r.r.r.r.w.f.xXVXMXMXCXZXxXoX>.[ ' K s u - <X:X%X&XiXbX",
").K.H.G.x.1 a s V W t.+XCXZXVXgX5 t hXlX0.r.r.r.r.r.r.w.f.xX X5 t hXZXZXCX.Xo.{ W V u - wXmXfX7X7X8X",
"9X7X8X4XD.* s V G W t.jXZXZXVXgX. t hXlX0.r.r.r.r.r.r.w.f.NX X. 8 hXZXZXZX.Xo. .W V u o #XfXeX*XR.R.",
"fXmXmXpX|.- d S H W t.jXZXZXCXhX{. XhXlX0.r.r.r.r.r.r.w.f.xXgX{.}.MXZXZXZX.Xo. .W n y o Y.8X*XW.K.K.",
"iXnXBXpX|.8 s Z H W t.+XCXZXZXCXVXVXCXlX0.r.r.r.r.r.r.w.f.xXCXVXVXZXZXZXCX.Xo. .W c o < 5X7XW.H.H.H.",
"~.iXnXiXC.n.= a C W *.y.OXZXZXZXZXNX@Xd.e.e.e.e.e.e.e.e.p.d.xXZXZXZXZXzXXX8.o. .W x r 1XeX[.W.H.H.H.",
"W.7XyX;XR.J.* i V W  .O.s.kXkXkXlX@Xs.;.;.;.;.;.;.;.;.;.;.;.XXlXlXkXkXOXi.,.o. .W x z.<XtX*XW.H.H.H.",
"7X7X3X[.[./.7 v b Y } O.2.8.8.i.a.i.&.l l l l l l l l l l k y.a.a.u.8.8.1.#.O.} Y x r C.).[.W.H.H.H.",
"yX3X[.*X*X[./.l.> b T *.@.@.<.6.r.9.&.j s s s s s s s s h j :.r.q.2.@.@.@.^ E U b > 4 G.E.[.`.I.H.H.",
"9XW.W.W.W.W.(.Y.v.x k L L *.$.5.r.e.3.&.h j j j j j j j K =.9.q.5.1.@.$.| Y S V x j.n.L.'.[.[.`.).W.",
"cXH.H.H.H.H.I.(.Y.w v f j T | 4.q.r.e.3.Q %.%.%.%.%.%.%.&.9.r.7.1.$.$.| J n n v 7 n.G.'.[.[.[.[.[.3X",
"iX=XJ.H.J.J.H.L.L.~.0 < > h l ` 2.q.r.e.e.e.e.e.e.e.e.e.e.e.r.7.#.L U I > 1 5 0 M.H.).[.).L.L.L.[.qX",
"yXsX&XI.J.Y.Y.Y.Y.;X<X1X X> > , _ 3.9.e.e.e.e.e.e.e.e.e.q.5.2.1.$.J = e #X<XgX1XyX7X].).K.K.H.H.W.iX",
"T.eXiX%X_.iXuXeXyXeX9XtX<XD.D.N.t _ =.-.-.-.-.-.-.-.-.-.-...` ` _ {.A.F.4X9XvXeXsXaX%XJ.H.H.H.H.$X6X",
"H./.eX9X9X9X3X[.).~.E.*X).=XiXpX^.7 5 5 5 6 6 5 5 5 5 5 6 6 6 6 0 Y._.!.U.'.[._.9XfXsX/.H.H.H./.uX%X",
"H.H.4X3X-X-X[.).L.H.E.'.U.%XpXbXiX&X$X$X<XqXP.C.J._.R.C.J.8X_._._.].W.H.H.'.!.Y.8XbXdXiX=X=X=XpX%XK."
};
